<?xml version="1.0" encoding="UTF-8"?>
<svg xmlns="http://www.w3.org/2000/svg" xmlns:xlink="http://www.w3.org/1999/xlink" width="87px" height="100px" viewBox="0 0 87 100" version="1.1">
<g id="surface1">
<path style=" stroke:none;fill-rule:nonzero;fill:rgb(4.705882%,45.098039%,72.156863%);fill-opacity:1;" d="M 7.890625 88.460938 L 0 0 L 86.804688 0 L 78.914062 88.460938 L 43.304688 98.460938 "/>
<path style=" stroke:none;fill-rule:nonzero;fill:rgb(18.823529%,66.27451%,86.27451%);fill-opacity:1;" d="M 43.5 90.769531 L 72.179688 82.882812 L 78.914062 7.117188 L 43.5 7.117188 "/>
<path style=" stroke:none;fill-rule:nonzero;fill:rgb(92.54902%,92.941176%,93.333333%);fill-opacity:1;" d="M 43.5 40 L 18.09375 40 L 19.054688 50.960938 L 43.5 50.960938 Z M 43.5 18.078125 L 16.167969 18.078125 L 17.132812 28.84375 L 43.5 28.84375 Z M 43.5 68.269531 L 19.632812 61.921875 L 20.980469 73.460938 L 43.5 79.617188 Z M 43.5 68.269531 "/>
<path style=" stroke:none;fill-rule:nonzero;fill:rgb(100%,100%,100%);fill-opacity:1;" d="M 43.5 50.960938 L 56.78125 50.960938 L 55.433594 65 L 43.5 68.269531 L 43.5 79.617188 L 65.632812 73.460938 L 70.640625 18.078125 L 43.5 18.078125 L 43.5 28.84375 L 58.898438 28.84375 L 57.742188 40 L 43.5 40 Z M 43.5 50.960938 "/>
</g>
</svg>
