<?xml version="1.0" encoding="UTF-8" standalone="no"?>
<svg
   width="100px"
   height="100px"
   viewBox="0 0 100 100"
   version="1.1"
   id="svg459"
   sodipodi:docname="express.svg"
   inkscape:version="1.2.2 (732a01da63, 2022-12-09)"
   xmlns:inkscape="http://www.inkscape.org/namespaces/inkscape"
   xmlns:sodipodi="http://sodipodi.sourceforge.net/DTD/sodipodi-0.dtd"
   xmlns="http://www.w3.org/2000/svg"
   xmlns:svg="http://www.w3.org/2000/svg">
  <defs
     id="defs463" />
  <sodipodi:namedview
     id="namedview461"
     pagecolor="#ffffff"
     bordercolor="#000000"
     borderopacity="0.25"
     inkscape:showpageshadow="2"
     inkscape:pageopacity="0.0"
     inkscape:pagecheckerboard="0"
     inkscape:deskcolor="#d1d1d1"
     showgrid="false"
     inkscape:zoom="8.37"
     inkscape:cx="49.940263"
     inkscape:cy="40.501792"
     inkscape:window-width="1920"
     inkscape:window-height="1017"
     inkscape:window-x="1358"
     inkscape:window-y="-8"
     inkscape:window-maximized="1"
     inkscape:current-layer="surface1" />
  <g
     id="surface1">
    <path
       style=" stroke:none;fill-rule:nonzero;fill:rgb(50.980392%,50.980392%,50.980392%);fill-opacity:1;"
       d="M 47.042969 2.539062 C 47.328125 2.503906 47.566406 2.445312 47.804688 2.445312 C 49.253906 2.4375 50.703125 2.390625 52.148438 2.457031 C 53.59375 2.519531 55.03125 2.691406 56.472656 2.828125 C 58.722656 3.035156 60.933594 3.484375 63.09375 4.121094 C 64.898438 4.648438 66.671875 5.285156 68.425781 5.96875 C 69.6875 6.460938 70.894531 7.09375 72.109375 7.699219 C 74.367188 8.816406 76.457031 10.210938 78.464844 11.722656 C 80.632812 13.359375 82.667969 15.148438 84.542969 17.117188 C 86.351562 19.015625 88.070312 20.996094 89.511719 23.191406 C 90.695312 24.992188 91.859375 26.820312 92.84375 28.734375 C 93.761719 30.515625 94.476562 32.410156 95.199219 34.285156 C 96.074219 36.554688 96.605469 38.925781 97.046875 41.308594 C 97.300781 42.695312 97.460938 44.105469 97.542969 45.511719 C 97.667969 47.613281 97.753906 49.71875 97.730469 51.820312 C 97.714844 53.378906 97.511719 54.933594 97.363281 56.484375 C 97.085938 59.457031 96.386719 62.347656 95.464844 65.171875 C 94.914062 66.867188 94.195312 68.515625 93.472656 70.148438 C 92.476562 72.390625 91.28125 74.527344 89.847656 76.519531 C 88.855469 77.894531 87.847656 79.265625 86.75 80.558594 C 85.523438 81.996094 84.234375 83.386719 82.886719 84.714844 C 81.171875 86.410156 79.292969 87.921875 77.332031 89.328125 C 75.097656 90.933594 72.742188 92.3125 70.257812 93.472656 C 67.3125 94.847656 64.265625 95.941406 61.070312 96.582031 C 59.460938 96.902344 57.839844 97.195312 56.214844 97.445312 C 55.339844 97.578125 54.449219 97.617188 53.566406 97.648438 C 51.960938 97.707031 50.355469 97.785156 48.75 97.738281 C 47.0625 97.683594 45.378906 97.527344 43.695312 97.359375 C 40.261719 97.023438 36.9375 96.195312 33.691406 95.023438 C 31.234375 94.136719 28.839844 93.101562 26.621094 91.710938 C 24.757812 90.539062 22.917969 89.320312 21.128906 88.035156 C 20.085938 87.285156 19.152344 86.386719 18.195312 85.519531 C 17.332031 84.738281 16.480469 83.933594 15.671875 83.09375 C 13.84375 81.1875 12.121094 79.1875 10.667969 76.984375 C 9.492188 75.195312 8.335938 73.382812 7.359375 71.484375 C 6.453125 69.730469 5.761719 67.859375 5.042969 66.015625 C 4.140625 63.707031 3.59375 61.289062 3.148438 58.859375 C 2.894531 57.472656 2.726562 56.0625 2.652344 54.65625 C 2.527344 52.328125 2.449219 49.996094 2.464844 47.664062 C 2.472656 46.335938 2.699219 45.007812 2.832031 43.683594 C 3.046875 41.484375 3.457031 39.3125 4.109375 37.207031 C 4.726562 35.210938 5.378906 33.222656 6.164062 31.292969 C 7.253906 28.605469 8.648438 26.058594 10.335938 23.695312 C 11.332031 22.304688 12.359375 20.925781 13.460938 19.617188 C 14.597656 18.273438 15.796875 16.976562 17.046875 15.734375 C 18.933594 13.867188 20.964844 12.152344 23.183594 10.6875 C 24.984375 9.503906 26.8125 8.339844 28.726562 7.355469 C 30.507812 6.4375 32.402344 5.71875 34.277344 5 C 36.546875 4.128906 38.921875 3.605469 41.300781 3.144531 C 42.351562 2.941406 43.429688 2.851562 44.496094 2.738281 C 45.328125 2.648438 46.164062 2.605469 47.042969 2.539062 M 39.367188 33.335938 C 37.546875 32.277344 35.550781 31.8125 33.476562 31.640625 C 31.203125 31.445312 28.960938 31.628906 26.78125 32.324219 C 23.585938 33.339844 20.976562 35.207031 18.953125 37.882812 C 16.796875 40.730469 15.605469 43.984375 15.273438 47.511719 C 15.117188 49.132812 15.253906 50.785156 15.34375 52.417969 C 15.4375 54.105469 15.828125 55.75 16.320312 57.363281 C 17.503906 61.246094 19.679688 64.382812 23.242188 66.449219 C 25.496094 67.757812 27.9375 68.421875 30.539062 68.5625 C 32.6875 68.675781 34.828125 68.628906 36.917969 68.0625 C 42.132812 66.640625 45.707031 63.503906 47.097656 58.144531 C 47.179688 57.828125 47.230469 57.5 47.300781 57.132812 C 45.429688 57.132812 43.625 57.125 41.820312 57.148438 C 41.703125 57.148438 41.527344 57.363281 41.488281 57.507812 C 41.136719 58.804688 40.535156 59.945312 39.558594 60.898438 C 37.660156 62.753906 35.308594 63.460938 32.746094 63.550781 C 31.722656 63.589844 30.675781 63.464844 29.667969 63.265625 C 26.429688 62.625 23.988281 60.871094 22.5 57.875 C 21.863281 56.59375 21.570312 55.214844 21.398438 53.8125 C 21.308594 53.082031 21.304688 52.339844 21.261719 51.527344 C 30.167969 51.527344 38.992188 51.527344 47.898438 51.527344 C 47.847656 50.488281 47.859375 49.511719 47.742188 48.550781 C 47.5625 47.058594 47.414062 45.546875 47.046875 44.09375 C 45.902344 39.550781 43.53125 35.835938 39.367188 33.335938 M 66.496094 53.953125 C 66.628906 53.753906 66.765625 53.558594 66.921875 53.328125 C 67.058594 53.523438 67.167969 53.667969 67.265625 53.816406 C 70.5 58.621094 73.734375 63.421875 76.957031 68.234375 C 77.152344 68.523438 77.359375 68.636719 77.710938 68.632812 C 79.957031 68.617188 82.203125 68.625 84.445312 68.625 C 84.601562 68.625 84.757812 68.605469 85.003906 68.59375 C 84.851562 68.375 84.75 68.214844 84.640625 68.0625 C 80.109375 61.742188 75.582031 55.421875 71.035156 49.109375 C 70.78125 48.753906 70.792969 48.539062 71.054688 48.191406 C 75.070312 42.847656 79.074219 37.488281 83.078125 32.132812 C 83.179688 31.996094 83.273438 31.847656 83.40625 31.652344 C 83.183594 31.644531 83.027344 31.628906 82.871094 31.628906 C 80.789062 31.628906 78.707031 31.636719 76.621094 31.621094 C 76.273438 31.617188 76.066406 31.722656 75.863281 32.007812 C 73.023438 36.015625 70.167969 40.015625 67.316406 44.015625 C 67.195312 44.183594 67.074219 44.347656 66.929688 44.546875 C 66.792969 44.363281 66.6875 44.21875 66.589844 44.074219 C 63.828125 40.050781 61.066406 36.023438 58.320312 31.992188 C 58.128906 31.714844 57.933594 31.617188 57.605469 31.621094 C 55.328125 31.632812 53.050781 31.628906 50.769531 31.628906 C 50.632812 31.628906 50.496094 31.648438 50.28125 31.664062 C 50.492188 31.957031 50.660156 32.1875 50.832031 32.421875 C 54.808594 37.835938 58.785156 43.253906 62.777344 48.660156 C 63.054688 49.035156 63.054688 49.273438 62.785156 49.652344 C 58.378906 55.804688 53.988281 61.964844 49.597656 68.125 C 49.5 68.261719 49.414062 68.40625 49.289062 68.597656 C 49.523438 68.613281 49.664062 68.625 49.808594 68.625 C 51.921875 68.625 54.039062 68.617188 56.15625 68.632812 C 56.511719 68.636719 56.707031 68.511719 56.898438 68.226562 C 60.078125 63.484375 63.269531 58.746094 66.496094 53.953125 Z M 66.496094 53.953125 "
       id="path450" />
    <path
       style=" stroke:none;fill-rule:nonzero;fill:rgb(100%,100%,100%);fill-opacity:1;"
       d="M 39.398438 33.355469 C 43.53125 35.835938 45.902344 39.550781 47.046875 44.09375 C 47.414062 45.546875 47.5625 47.058594 47.742188 48.550781 C 47.859375 49.511719 47.847656 50.488281 47.898438 51.527344 C 38.992188 51.527344 30.167969 51.527344 21.261719 51.527344 C 21.304688 52.339844 21.308594 53.082031 21.398438 53.8125 C 21.570312 55.214844 21.863281 56.59375 22.5 57.875 C 23.988281 60.871094 26.429688 62.625 29.667969 63.265625 C 30.675781 63.464844 31.722656 63.589844 32.746094 63.550781 C 35.308594 63.460938 37.660156 62.753906 39.558594 60.898438 C 40.535156 59.945312 41.136719 58.804688 41.488281 57.507812 C 41.527344 57.363281 41.703125 57.148438 41.820312 57.148438 C 43.625 57.125 45.429688 57.132812 47.300781 57.132812 C 47.230469 57.5 47.179688 57.828125 47.097656 58.144531 C 45.707031 63.503906 42.132812 66.640625 36.917969 68.0625 C 34.828125 68.628906 32.6875 68.675781 30.539062 68.5625 C 27.9375 68.421875 25.496094 67.757812 23.242188 66.449219 C 19.679688 64.382812 17.503906 61.246094 16.320312 57.363281 C 15.828125 55.75 15.4375 54.105469 15.34375 52.417969 C 15.253906 50.785156 15.117188 49.132812 15.273438 47.511719 C 15.605469 43.984375 16.796875 40.730469 18.953125 37.882812 C 20.976562 35.207031 23.585938 33.339844 26.78125 32.324219 C 28.960938 31.628906 31.203125 31.445312 33.476562 31.640625 C 35.550781 31.8125 37.546875 32.277344 39.398438 33.355469 M 34.617188 46.722656 C 36.960938 46.722656 39.300781 46.722656 41.644531 46.722656 C 41.457031 41.992188 38.171875 37.132812 32.089844 36.746094 C 25.894531 36.355469 21.746094 40.902344 21.347656 46.722656 C 25.742188 46.722656 30.132812 46.722656 34.617188 46.722656 Z M 34.617188 46.722656 "
       id="path452" />
    <path
       style=" stroke:none;fill-rule:nonzero;fill:rgb(100%,100%,100%);fill-opacity:1;"
       d="M 66.476562 53.980469 C 63.269531 58.746094 60.078125 63.484375 56.898438 68.226562 C 56.707031 68.511719 56.511719 68.636719 56.15625 68.632812 C 54.039062 68.617188 51.921875 68.625 49.808594 68.625 C 49.664062 68.625 49.523438 68.613281 49.289062 68.597656 C 49.414062 68.40625 49.5 68.261719 49.597656 68.125 C 53.988281 61.964844 58.378906 55.804688 62.785156 49.652344 C 63.054688 49.273438 63.054688 49.035156 62.777344 48.660156 C 58.785156 43.253906 54.808594 37.835938 50.832031 32.421875 C 50.660156 32.1875 50.492188 31.957031 50.28125 31.664062 C 50.496094 31.648438 50.632812 31.628906 50.769531 31.628906 C 53.050781 31.628906 55.328125 31.632812 57.605469 31.621094 C 57.933594 31.617188 58.128906 31.714844 58.320312 31.992188 C 61.066406 36.023438 63.828125 40.050781 66.589844 44.074219 C 66.6875 44.21875 66.792969 44.363281 66.929688 44.546875 C 67.074219 44.347656 67.195312 44.183594 67.316406 44.015625 C 70.167969 40.015625 73.023438 36.015625 75.863281 32.007812 C 76.066406 31.722656 76.273438 31.617188 76.621094 31.621094 C 78.707031 31.636719 80.789062 31.628906 82.871094 31.628906 C 83.027344 31.628906 83.183594 31.644531 83.40625 31.652344 C 83.273438 31.847656 83.179688 31.996094 83.078125 32.132812 C 79.074219 37.488281 75.070312 42.847656 71.054688 48.191406 C 70.792969 48.539062 70.78125 48.753906 71.035156 49.109375 C 75.582031 55.421875 80.109375 61.742188 84.640625 68.0625 C 84.75 68.214844 84.851562 68.375 85.003906 68.59375 C 84.757812 68.605469 84.601562 68.625 84.445312 68.625 C 82.203125 68.625 79.957031 68.617188 77.710938 68.632812 C 77.359375 68.636719 77.152344 68.523438 76.957031 68.234375 C 73.734375 63.421875 70.5 58.621094 67.265625 53.816406 C 67.167969 53.667969 67.058594 53.523438 66.921875 53.328125 C 66.765625 53.558594 66.628906 53.753906 66.476562 53.980469 Z M 66.476562 53.980469 "
       id="path454" />
    <path
       style=" stroke:none;fill-rule:nonzero;fill:rgb(50.980392%,50.980392%,50.980392%);fill-opacity:1;"
       d="M 34.570312 46.722656 C 30.132812 46.722656 25.742188 46.722656 21.347656 46.722656 C 21.746094 40.902344 25.894531 36.355469 32.089844 36.746094 C 38.171875 37.132812 41.457031 41.992188 41.644531 46.722656 C 39.300781 46.722656 36.960938 46.722656 34.570312 46.722656 Z M 34.570312 46.722656 "
       id="path456" />
  </g>
</svg>
