<?xml version="1.0" encoding="UTF-8" standalone="no"?>
<svg
   width="100px"
   height="100px"
   viewBox="0 0 100 100"
   version="1.1"
   id="svg361"
   sodipodi:docname="firebase1 (1).svg"
   inkscape:version="1.2.2 (732a01da63, 2022-12-09)"
   xmlns:inkscape="http://www.inkscape.org/namespaces/inkscape"
   xmlns:sodipodi="http://sodipodi.sourceforge.net/DTD/sodipodi-0.dtd"
   xmlns="http://www.w3.org/2000/svg"
   xmlns:svg="http://www.w3.org/2000/svg">
  <defs
     id="defs365" />
  <sodipodi:namedview
     id="namedview363"
     pagecolor="#ffffff"
     bordercolor="#000000"
     borderopacity="0.25"
     inkscape:showpageshadow="2"
     inkscape:pageopacity="0.0"
     inkscape:pagecheckerboard="0"
     inkscape:deskcolor="#d1d1d1"
     showgrid="false"
     inkscape:zoom="5.9184838"
     inkscape:cx="52.040356"
     inkscape:cy="46.633565"
     inkscape:window-width="1920"
     inkscape:window-height="1017"
     inkscape:window-x="1358"
     inkscape:window-y="-8"
     inkscape:window-maximized="1"
     inkscape:current-layer="surface1" />
  <g
     id="surface1">
    <path
       style=" stroke:none;fill-rule:nonzero;fill:rgb(100%,79.215686%,15.686275%);fill-opacity:1;"
       d="M 79.730469 41.828125 C 80.003906 43.417969 80.273438 44.988281 80.542969 46.5625 C 80.558594 46.636719 80.5625 46.71875 80.574219 46.828125 C 80.578125 46.886719 80.589844 46.910156 80.609375 46.949219 C 80.882812 48.539062 81.15625 50.109375 81.425781 51.679688 C 81.4375 51.757812 81.445312 51.839844 81.453125 51.949219 C 81.457031 52.007812 81.46875 52.03125 81.488281 52.066406 C 81.765625 53.65625 82.035156 55.230469 82.304688 56.800781 C 82.316406 56.878906 82.324219 56.957031 82.332031 57.070312 C 82.339844 57.128906 82.347656 57.148438 82.371094 57.1875 C 82.644531 58.777344 82.914062 60.347656 83.183594 61.921875 C 83.199219 62 83.203125 62.078125 83.214844 62.191406 C 83.21875 62.246094 83.230469 62.269531 83.25 62.308594 C 83.523438 63.867188 83.792969 65.410156 84.058594 66.953125 C 84.253906 68.089844 84.4375 69.230469 84.632812 70.367188 C 84.882812 71.84375 85.140625 73.320312 85.394531 74.800781 C 85.652344 76.304688 85.914062 77.804688 86.167969 79.308594 C 86.261719 79.871094 86.253906 79.871094 85.738281 80.179688 C 80.925781 83.070312 76.113281 85.957031 71.300781 88.847656 C 65.597656 92.269531 59.898438 95.691406 54.199219 99.117188 C 53.628906 99.460938 53.007812 99.628906 52.363281 99.753906 C 52.011719 99.820312 51.660156 99.875 51.304688 99.933594 C 51.234375 99.945312 51.179688 99.96875 51.171875 100.054688 C 50.425781 100.078125 49.648438 100.078125 48.835938 100.078125 C 48.585938 99.941406 48.335938 99.992188 48.105469 99.964844 C 47.179688 99.859375 46.324219 99.566406 45.519531 99.089844 C 41.011719 96.4375 36.503906 93.78125 32 91.125 C 29.167969 89.457031 26.339844 87.785156 23.503906 86.121094 C 20.527344 84.378906 17.570312 82.613281 14.589844 80.882812 C 14.382812 80.761719 14.15625 80.664062 14.019531 80.417969 C 14.003906 80.367188 13.996094 80.347656 13.996094 80.296875 C 14 80.222656 14.015625 80.1875 14.054688 80.125 C 14.085938 80.085938 14.097656 80.070312 14.152344 80.011719 C 14.523438 79.734375 14.734375 79.382812 15.015625 79.101562 C 26.714844 67.40625 38.414062 55.710938 50.109375 44.011719 C 50.214844 43.90625 50.3125 43.796875 50.457031 43.695312 C 52.828125 41.25 55.25 38.890625 57.632812 36.492188 C 58.371094 35.746094 59.117188 35.003906 59.863281 34.261719 C 59.984375 34.140625 60.085938 33.992188 60.296875 33.949219 C 60.496094 33.90625 60.578125 33.757812 60.691406 33.648438 C 64.527344 29.816406 68.359375 25.980469 72.195312 22.148438 C 72.601562 21.746094 73.03125 21.371094 73.578125 21.160156 C 74.640625 20.742188 75.558594 21.066406 76.117188 22.058594 C 76.382812 22.527344 76.5 23.042969 76.585938 23.570312 C 76.738281 24.488281 76.898438 25.402344 77.054688 26.351562 C 77.058594 26.40625 77.070312 26.429688 77.089844 26.46875 C 77.363281 28.058594 77.636719 29.628906 77.90625 31.199219 C 77.917969 31.277344 77.921875 31.359375 77.933594 31.46875 C 77.9375 31.527344 77.949219 31.550781 77.96875 31.589844 C 78.246094 33.175781 78.515625 34.75 78.785156 36.320312 C 78.796875 36.398438 78.804688 36.476562 78.8125 36.589844 C 78.820312 36.648438 78.828125 36.671875 78.851562 36.707031 C 79.125 38.296875 79.394531 39.867188 79.664062 41.441406 C 79.679688 41.519531 79.683594 41.597656 79.691406 41.710938 C 79.699219 41.769531 79.710938 41.789062 79.730469 41.828125 Z M 79.730469 41.828125 "
       id="path330" />
    <path
       style=" stroke:none;fill-rule:nonzero;fill:rgb(100%,62.745098%,0%);fill-opacity:1;"
       d="M 14.050781 80.175781 C 14.234375 79.015625 14.40625 77.890625 14.582031 76.761719 C 14.839844 75.148438 15.101562 73.539062 15.363281 71.925781 C 15.648438 70.160156 15.9375 68.390625 16.21875 66.621094 C 16.472656 65.050781 16.714844 63.476562 16.964844 61.902344 C 17.21875 60.320312 17.484375 58.734375 17.738281 57.148438 C 17.992188 55.578125 18.234375 54.003906 18.484375 52.429688 C 18.792969 50.519531 19.105469 48.605469 19.414062 46.691406 C 19.714844 44.792969 20.011719 42.890625 20.316406 40.992188 C 20.625 39.066406 20.945312 37.140625 21.253906 35.214844 C 21.5625 33.300781 21.859375 31.386719 22.164062 29.476562 C 22.449219 27.707031 22.742188 25.9375 23.023438 24.171875 C 23.328125 22.257812 23.625 20.34375 23.929688 18.429688 C 24.238281 16.515625 24.554688 14.605469 24.859375 12.691406 C 25.167969 10.777344 25.464844 8.863281 25.769531 6.949219 C 26.035156 5.300781 26.300781 3.648438 26.570312 2 C 26.628906 1.628906 26.757812 1.28125 26.902344 0.9375 C 27.050781 0.601562 27.308594 0.355469 27.546875 0.0976562 C 27.816406 0.078125 28.109375 0.078125 28.441406 0.078125 C 28.367188 0.140625 28.453125 0.1875 28.496094 0.214844 C 29.148438 0.621094 29.527344 1.238281 29.859375 1.898438 C 30.753906 3.695312 31.660156 5.488281 32.535156 7.296875 C 33.277344 8.828125 34.066406 10.339844 34.804688 11.875 C 35.554688 13.433594 36.355469 14.964844 37.109375 16.519531 C 37.84375 18.042969 38.625 19.539062 39.359375 21.0625 C 40.128906 22.65625 40.933594 24.230469 41.71875 25.816406 C 41.855469 26.089844 41.953125 26.382812 42.128906 26.640625 C 42.277344 26.605469 42.277344 26.460938 42.320312 26.363281 C 43.261719 24.265625 44.191406 22.164062 45.125 20.066406 C 45.695312 18.792969 46.253906 17.511719 46.832031 16.242188 C 47.070312 15.71875 47.394531 15.25 47.851562 14.886719 C 48.273438 14.550781 48.742188 14.359375 49.320312 14.382812 C 49.371094 14.375 49.386719 14.371094 49.421875 14.378906 C 50.164062 14.535156 50.679688 14.96875 51.097656 15.554688 C 51.421875 16.011719 51.640625 16.523438 51.886719 17.027344 C 52.414062 18.101562 52.957031 19.171875 53.492188 20.242188 C 55.765625 24.789062 58.039062 29.335938 60.320312 33.914062 C 60.304688 34.089844 60.191406 34.171875 60.101562 34.265625 C 56.96875 37.394531 53.835938 40.527344 50.703125 43.660156 C 50.675781 43.6875 50.644531 43.710938 50.59375 43.753906 C 50.347656 43.746094 50.265625 43.566406 50.1875 43.398438 C 48.695312 40.246094 47.058594 37.160156 45.542969 34.015625 C 44.503906 31.855469 43.40625 29.722656 42.351562 27.570312 C 42.304688 27.480469 42.273438 27.371094 42.125 27.289062 C 41.90625 27.660156 41.707031 28.046875 41.507812 28.429688 C 40.265625 30.828125 38.996094 33.214844 37.746094 35.609375 C 36.363281 38.253906 34.96875 40.890625 33.582031 43.53125 C 32.226562 46.113281 30.867188 48.695312 29.511719 51.273438 C 28.125 53.914062 26.734375 56.554688 25.351562 59.195312 C 23.988281 61.789062 22.621094 64.382812 21.265625 66.976562 C 20.152344 69.097656 19.03125 71.21875 17.917969 73.339844 C 16.882812 75.308594 15.839844 77.273438 14.8125 79.246094 C 14.664062 79.53125 14.429688 79.757812 14.257812 80.058594 C 14.238281 80.082031 14.238281 80.078125 14.242188 80.078125 C 14.222656 80.097656 14.203125 80.113281 14.171875 80.148438 C 14.148438 80.1875 14.132812 80.207031 14.101562 80.230469 C 14.070312 80.230469 14.054688 80.214844 14.050781 80.175781 Z M 14.050781 80.175781 "
       id="path334" />
    <path
       style=" stroke:none;fill-rule:nonzero;fill:rgb(70.588235%,54.901961%,9.803922%);fill-opacity:1;"
       d="M 77.101562 26.464844 C 77.078125 26.464844 77.0625 26.445312 77.050781 26.402344 C 77.070312 26.402344 77.089844 26.425781 77.101562 26.464844 Z M 77.101562 26.464844 "
       id="path336" />
    <path
       style=" stroke:none;fill-rule:nonzero;fill:rgb(70.588235%,54.901961%,9.803922%);fill-opacity:1;"
       d="M 77.980469 31.585938 C 77.957031 31.585938 77.941406 31.5625 77.929688 31.523438 C 77.949219 31.523438 77.96875 31.542969 77.980469 31.585938 Z M 77.980469 31.585938 "
       id="path338" />
    <path
       style=" stroke:none;fill-rule:nonzero;fill:rgb(70.588235%,54.901961%,9.803922%);fill-opacity:1;"
       d="M 78.859375 36.707031 C 78.839844 36.707031 78.820312 36.683594 78.808594 36.644531 C 78.832031 36.644531 78.847656 36.664062 78.859375 36.707031 Z M 78.859375 36.707031 "
       id="path340" />
    <path
       style=" stroke:none;fill-rule:nonzero;fill:rgb(70.588235%,54.901961%,9.803922%);fill-opacity:1;"
       d="M 79.738281 41.824219 C 79.71875 41.824219 79.703125 41.804688 79.691406 41.761719 C 79.710938 41.765625 79.726562 41.785156 79.738281 41.824219 Z M 79.738281 41.824219 "
       id="path342" />
    <path
       style=" stroke:none;fill-rule:nonzero;fill:rgb(70.588235%,54.901961%,9.803922%);fill-opacity:1;"
       d="M 80.621094 46.945312 C 80.597656 46.945312 80.582031 46.925781 80.570312 46.882812 C 80.589844 46.882812 80.609375 46.90625 80.621094 46.945312 Z M 80.621094 46.945312 "
       id="path344" />
    <path
       style=" stroke:none;fill-rule:nonzero;fill:rgb(70.588235%,54.901961%,9.803922%);fill-opacity:1;"
       d="M 81.5 52.066406 C 81.476562 52.066406 81.460938 52.042969 81.449219 52.003906 C 81.46875 52.003906 81.488281 52.023438 81.5 52.066406 Z M 81.5 52.066406 "
       id="path346" />
    <path
       style=" stroke:none;fill-rule:nonzero;fill:rgb(70.588235%,54.901961%,9.803922%);fill-opacity:1;"
       d="M 82.378906 57.1875 C 82.359375 57.183594 82.34375 57.164062 82.328125 57.125 C 82.351562 57.125 82.367188 57.144531 82.378906 57.1875 Z M 82.378906 57.1875 "
       id="path348" />
    <path
       style=" stroke:none;fill-rule:nonzero;fill:rgb(70.588235%,54.901961%,9.803922%);fill-opacity:1;"
       d="M 83.257812 62.304688 C 83.238281 62.304688 83.222656 62.285156 83.210938 62.242188 C 83.230469 62.242188 83.246094 62.265625 83.257812 62.304688 Z M 83.257812 62.304688 "
       id="path350" />
    <path
       style=" stroke:none;fill-rule:nonzero;fill:rgb(23.529412%,15.686275%,0%);fill-opacity:1;"
       d="M 49.433594 14.382812 C 49.425781 14.394531 49.414062 14.394531 49.378906 14.386719 C 49.378906 14.355469 49.402344 14.351562 49.433594 14.382812 Z M 49.433594 14.382812 "
       id="path352" />
    <path
       style=" stroke:none;fill-rule:nonzero;fill:rgb(96.078431%,49.803922%,9.019608%);fill-opacity:1;"
       d="M 14.261719 80.070312 C 14.25 80.019531 14.246094 79.945312 14.277344 79.890625 C 14.863281 78.769531 15.453125 77.648438 16.046875 76.53125 C 16.339844 75.980469 16.613281 75.417969 16.917969 74.867188 C 17.382812 74.015625 17.8125 73.140625 18.261719 72.28125 C 19.125 70.628906 19.992188 68.976562 20.859375 67.324219 C 21.363281 66.371094 21.867188 65.417969 22.371094 64.464844 C 23.226562 62.835938 24.078125 61.207031 24.933594 59.582031 C 25.464844 58.566406 26 57.554688 26.53125 56.539062 C 27.386719 54.914062 28.238281 53.285156 29.09375 51.65625 C 29.609375 50.679688 30.125 49.703125 30.640625 48.722656 C 31.480469 47.121094 32.324219 45.515625 33.164062 43.914062 C 33.710938 42.875 34.257812 41.839844 34.800781 40.800781 C 35.644531 39.195312 36.484375 37.59375 37.328125 35.988281 C 37.847656 35 38.371094 34.011719 38.890625 33.019531 C 39.726562 31.429688 40.5625 29.835938 41.398438 28.246094 C 41.59375 27.878906 41.789062 27.515625 41.984375 27.152344 C 42.027344 27.074219 42.050781 26.976562 42.15625 26.933594 C 42.285156 26.972656 42.3125 27.101562 42.363281 27.203125 C 43.398438 29.277344 44.457031 31.339844 45.464844 33.429688 C 46.90625 36.417969 48.425781 39.367188 49.890625 42.347656 C 50.113281 42.800781 50.324219 43.257812 50.558594 43.742188 C 50.453125 43.894531 50.339844 44.027344 50.21875 44.148438 C 38.347656 56.019531 26.476562 67.886719 14.605469 79.753906 C 14.503906 79.859375 14.394531 79.957031 14.261719 80.070312 Z M 14.261719 80.070312 "
       id="path354" />
    <path
       style=" stroke:none;fill-rule:nonzero;fill:rgb(56.078431%,37.254902%,3.137255%);fill-opacity:1;"
       d="M 14.039062 80.160156 C 14.066406 80.160156 14.070312 80.175781 14.082031 80.21875 C 14.082031 80.257812 14.074219 80.273438 14.0625 80.3125 C 13.984375 80.292969 13.992188 80.234375 14.039062 80.160156 Z M 14.039062 80.160156 "
       id="path356" />
    <path
       style=" stroke:none;fill-rule:nonzero;fill:rgb(96.078431%,49.803922%,9.019608%);fill-opacity:1;"
       d="M 14.175781 80.152344 C 14.175781 80.144531 14.191406 80.121094 14.226562 80.089844 C 14.226562 80.097656 14.210938 80.121094 14.175781 80.152344 Z M 14.175781 80.152344 "
       id="path358" />
  </g>
</svg>
