<?xml version="1.0" encoding="UTF-8" standalone="no"?>
<svg
   width="100px"
   height="100px"
   viewBox="0 0 100 100"
   version="1.1"
   id="svg11"
   sodipodi:docname="javascript.svg"
   inkscape:version="1.2.2 (732a01da63, 2022-12-09)"
   xmlns:inkscape="http://www.inkscape.org/namespaces/inkscape"
   xmlns:sodipodi="http://sodipodi.sourceforge.net/DTD/sodipodi-0.dtd"
   xmlns="http://www.w3.org/2000/svg"
   xmlns:svg="http://www.w3.org/2000/svg">
  <defs
     id="defs15" />
  <sodipodi:namedview
     id="namedview13"
     pagecolor="#ffffff"
     bordercolor="#000000"
     borderopacity="0.25"
     inkscape:showpageshadow="2"
     inkscape:pageopacity="0.0"
     inkscape:pagecheckerboard="0"
     inkscape:deskcolor="#d1d1d1"
     showgrid="false"
     inkscape:zoom="2.9592419"
     inkscape:cx="16.220371"
     inkscape:cy="29.399422"
     inkscape:window-width="1920"
     inkscape:window-height="1017"
     inkscape:window-x="1358"
     inkscape:window-y="-8"
     inkscape:window-maximized="1"
     inkscape:current-layer="surface1" />
  <g
     id="surface1">
    <path
       style="fill:#f5de1c;fill-opacity:1;fill-rule:nonzero;stroke:none;stroke-width:1.0319"
       d="m 0.0553488,29.801065 c 0,-9.691763 0.012091,-19.290802 -0.01612065,-28.89387156 C 0.03520664,0.18555192 0.21656186,0.0242913 0.92589662,0.0242913 c 32.72612338,0.02015835 65.45224738,0.02015835 98.17434138,0 0.721426,0 0.882643,0.17738668 0.882643,0.8869334 -0.02013,32.7359053 -0.02013,65.4718103 0,98.2036843 0,0.721642 -0.177337,0.882902 -0.886672,0.882902 -32.726124,-0.02016 -65.452248,-0.02016 -98.17434244,0 -0.72142596,0 -0.88263841,-0.177386 -0.88263841,-0.886933 C 0.05938049,76.034484 0.0553488,52.96212 0.0553488,29.801065 Z m 0,0"
       id="path4" />
    <path
       style=" stroke:none;fill-rule:nonzero;fill:rgb(0.392157%,0.392157%,0%);fill-opacity:1;"
       d="M 82.925781 56.589844 C 82.378906 56.925781 81.875 57.460938 81.386719 57.449219 C 80.90625 57.4375 80.742188 56.640625 80.414062 56.207031 C 78.875 54.167969 76.84375 53.371094 74.347656 53.84375 C 72.882812 54.121094 71.789062 54.945312 71.351562 56.410156 C 70.898438 57.921875 71.152344 59.335938 72.277344 60.5 C 73.179688 61.433594 74.339844 61.988281 75.5 62.519531 C 78.390625 63.851562 81.394531 64.945312 84.132812 66.601562 C 86.980469 68.324219 89.382812 70.457031 90.398438 73.757812 C 91.902344 78.652344 91.105469 84.375 86.78125 87.765625 C 84.058594 89.902344 80.882812 90.78125 77.496094 90.976562 C 73.230469 91.226562 69.140625 90.558594 65.429688 88.289062 C 63.011719 86.808594 61.140625 84.800781 59.734375 82.339844 C 59.429688 81.804688 59.554688 81.613281 60.039062 81.339844 C 62.117188 80.171875 64.179688 78.976562 66.226562 77.753906 C 66.703125 77.46875 66.929688 77.488281 67.25 77.992188 C 68.804688 80.410156 70.832031 82.234375 73.769531 82.746094 C 75.714844 83.082031 77.648438 83.054688 79.46875 82.15625 C 82.480469 80.667969 82.855469 77.070312 80.199219 75.007812 C 78.628906 73.789062 76.769531 73.101562 74.964844 72.316406 C 72.09375 71.070312 69.171875 69.914062 66.730469 67.875 C 62.46875 64.316406 61.3125 59.6875 62.628906 54.519531 C 63.921875 49.449219 67.644531 46.839844 72.644531 46.003906 C 76.074219 45.433594 79.453125 45.683594 82.636719 47.238281 C 85.066406 48.421875 86.792969 50.335938 88.183594 52.601562 C 88.433594 53.007812 88.28125 53.164062 87.949219 53.371094 C 86.28125 54.421875 84.628906 55.492188 82.925781 56.589844 Z M 82.925781 56.589844 "
       id="path6" />
    <path
       style=" stroke:none;fill-rule:nonzero;fill:rgb(0%,0%,0%);fill-opacity:1;"
       d="M 52.667969 85.320312 C 50.964844 88.140625 48.492188 89.816406 45.378906 90.511719 C 41.195312 91.441406 37.101562 91.261719 33.242188 89.195312 C 30.742188 87.855469 28.941406 85.828125 27.617188 83.339844 C 27.359375 82.855469 27.355469 82.621094 27.875 82.320312 C 29.9375 81.121094 31.980469 79.886719 33.996094 78.617188 C 34.570312 78.253906 34.847656 78.25 35.171875 78.894531 C 35.65625 79.859375 36.277344 80.75 37.070312 81.507812 C 38.625 82.996094 41.589844 83.347656 43.429688 82.238281 C 44.722656 81.457031 45.132812 80.175781 45.316406 78.792969 C 45.394531 78.1875 45.414062 77.574219 45.414062 76.964844 C 45.417969 67.050781 45.421875 57.132812 45.402344 47.21875 C 45.402344 46.527344 45.511719 46.265625 46.292969 46.285156 C 48.820312 46.34375 51.347656 46.316406 53.875 46.296875 C 54.359375 46.289062 54.542969 46.386719 54.539062 46.925781 C 54.515625 57.507812 54.535156 68.089844 54.480469 78.671875 C 54.46875 80.996094 53.875 83.226562 52.667969 85.320312 Z M 52.667969 85.320312 "
       id="path8" />
  </g>
</svg>
