<?xml version="1.0" encoding="UTF-8" standalone="no"?>
<svg
   width="100px"
   height="100px"
   viewBox="0 0 100 20"
   version="1.1"
   id="svg7"
   sodipodi:docname="next.svg"
   inkscape:version="1.2.2 (732a01da63, 2022-12-09)"
   xmlns:inkscape="http://www.inkscape.org/namespaces/inkscape"
   xmlns:sodipodi="http://sodipodi.sourceforge.net/DTD/sodipodi-0.dtd"
   xmlns="http://www.w3.org/2000/svg"
   xmlns:svg="http://www.w3.org/2000/svg">
  <defs
     id="defs11" />
  <sodipodi:namedview
     id="namedview9"
     pagecolor="#ffffff"
     bordercolor="#000000"
     borderopacity="0.25"
     inkscape:showpageshadow="2"
     inkscape:pageopacity="0.0"
     inkscape:pagecheckerboard="0"
     inkscape:deskcolor="#d1d1d1"
     showgrid="false"
     inkscape:zoom="8.37"
     inkscape:cx="29.151732"
     inkscape:cy="50.059737"
     inkscape:window-width="1920"
     inkscape:window-height="1017"
     inkscape:window-x="1358"
     inkscape:window-y="-8"
     inkscape:window-maximized="1"
     inkscape:current-layer="svg7" />
  <g
     id="surface1">
    <path
       style="stroke:none;fill-rule:nonzero;fill:#ffffff;fill-opacity:1"
       d="M 66.496094 0 L 83.882812 0 L 83.882812 3.175781 L 76.980469 3.175781 L 76.980469 19.824219 L 73.527344 19.824219 L 73.527344 3.175781 L 66.496094 3.175781 Z M 37.816406 0 L 37.816406 3.175781 L 23.859375 3.175781 L 23.859375 8.273438 L 35.101562 8.273438 L 35.101562 11.425781 L 23.859375 11.425781 L 23.859375 16.675781 L 37.816406 16.675781 L 37.816406 19.824219 L 20.429688 19.824219 L 20.429688 0 L 37.867188 0 Z M 46.523438 0 L 42.003906 0 L 58.199219 19.851562 L 62.742188 19.851562 L 54.621094 9.925781 L 62.742188 0.0234375 L 58.199219 0.0234375 L 52.359375 7.175781 L 46.523438 0.0234375 Z M 51.167969 14.175781 L 48.882812 11.425781 L 42.003906 19.851562 L 46.523438 19.851562 Z M 51.167969 14.175781 "
       id="path2" />
    <path
       style="stroke:none;fill-rule:nonzero;fill:#ffffff;fill-opacity:1"
       d="M 20.558594 19.824219 L 4.316406 0 L 0 0 L 0 19.824219 L 3.453125 19.824219 L 3.453125 4.25 L 16.191406 19.824219 Z M 84.671875 19.726562 C 84.417969 19.726562 84.214844 19.625 84.035156 19.476562 C 83.859375 19.324219 83.757812 19.074219 83.757812 18.824219 C 83.757812 18.574219 83.832031 18.375 84.011719 18.199219 C 84.1875 18.023438 84.417969 17.949219 84.671875 17.949219 C 84.925781 17.949219 85.125 18.023438 85.304688 18.199219 C 85.609375 18.476562 85.675781 18.925781 85.457031 19.273438 C 85.296875 19.542969 85.007812 19.710938 84.695312 19.726562 Z M 90.558594 11.351562 L 92.082031 11.351562 L 92.082031 17.175781 C 92.082031 17.699219 91.980469 18.175781 91.75 18.550781 C 91.523438 18.925781 91.1875 19.230469 90.785156 19.425781 C 90.378906 19.625 89.898438 19.75 89.339844 19.75 C 88.832031 19.75 88.402344 19.648438 87.996094 19.5 C 87.589844 19.351562 87.285156 19.050781 87.054688 18.699219 C 86.828125 18.375 86.699219 17.949219 86.699219 17.449219 L 88.222656 17.449219 C 88.25 17.648438 88.300781 17.851562 88.402344 18 C 88.503906 18.148438 88.65625 18.300781 88.808594 18.375 C 88.984375 18.476562 89.1875 18.5 89.417969 18.5 C 89.671875 18.5 89.875 18.449219 90.023438 18.351562 C 90.203125 18.246094 90.347656 18.085938 90.429688 17.898438 C 90.507812 17.699219 90.558594 17.449219 90.558594 17.148438 Z M 98.402344 13.625 C 98.371094 13.289062 98.183594 12.984375 97.894531 12.800781 C 97.566406 12.601562 97.1875 12.507812 96.800781 12.523438 C 96.472656 12.523438 96.191406 12.574219 95.964844 12.648438 C 95.734375 12.75 95.558594 12.898438 95.457031 13.050781 C 95.222656 13.335938 95.191406 13.734375 95.378906 14.050781 C 95.457031 14.175781 95.558594 14.273438 95.710938 14.351562 L 96.167969 14.601562 L 96.675781 14.726562 L 97.488281 14.925781 C 97.816406 15 98.121094 15.101562 98.425781 15.226562 C 98.71875 15.335938 98.992188 15.488281 99.238281 15.675781 C 99.734375 16.070312 100.015625 16.671875 100 17.300781 C 100 17.800781 99.875 18.226562 99.621094 18.574219 C 99.339844 18.964844 98.953125 19.269531 98.503906 19.449219 C 98.046875 19.648438 97.460938 19.75 96.777344 19.75 C 96.117188 19.75 95.53125 19.648438 95.050781 19.449219 C 94.542969 19.25 94.1875 18.949219 93.910156 18.574219 C 93.625 18.160156 93.476562 17.671875 93.476562 17.175781 L 95 17.175781 C 95.019531 17.707031 95.375 18.167969 95.886719 18.324219 C 96.140625 18.425781 96.445312 18.476562 96.75 18.476562 C 97.082031 18.476562 97.386719 18.425781 97.640625 18.324219 C 97.894531 18.226562 98.097656 18.074219 98.25 17.898438 C 98.378906 17.726562 98.453125 17.515625 98.453125 17.300781 C 98.453125 17.074219 98.402344 16.898438 98.273438 16.75 C 98.109375 16.613281 97.933594 16.496094 97.742188 16.398438 L 96.929688 16.148438 L 95.964844 15.898438 C 95.253906 15.726562 94.695312 15.476562 94.289062 15.101562 C 93.878906 14.738281 93.65625 14.214844 93.679688 13.675781 C 93.675781 13.222656 93.828125 12.78125 94.113281 12.425781 C 94.382812 12.039062 94.761719 11.734375 95.203125 11.550781 C 95.710938 11.351562 96.21875 11.25 96.828125 11.25 C 97.410156 11.25 97.945312 11.351562 98.402344 11.550781 C 98.859375 11.75 99.214844 12.050781 99.492188 12.398438 C 99.746094 12.75 99.875 13.148438 99.875 13.648438 L 98.402344 13.648438 Z M 98.402344 13.625 "
       id="path4" />
  </g>
</svg>
