<?xml version="1.0" encoding="UTF-8"?>
<svg xmlns="http://www.w3.org/2000/svg" xmlns:xlink="http://www.w3.org/1999/xlink" width="100px" height="100px" viewBox="0 0 100 100" version="1.1">
<g id="surface1">
<path style=" stroke:none;fill-rule:nonzero;fill:rgb(54.901961%,78.431373%,29.411765%);fill-opacity:1;" d="M 88.109375 29.320312 C 88.125 28.730469 87.789062 28.398438 87.339844 28.148438 C 85.9375 27.359375 84.53125 26.582031 83.128906 25.789062 C 80.441406 24.273438 77.761719 22.746094 75.074219 21.230469 C 72.921875 20.019531 70.765625 18.820312 68.617188 17.605469 C 65.914062 16.082031 63.21875 14.546875 60.515625 13.023438 C 58.351562 11.804688 56.179688 10.59375 54.015625 9.378906 C 52.953125 8.78125 51.882812 8.203125 50.835938 7.582031 C 50.339844 7.289062 49.890625 7.296875 49.414062 7.570312 C 47.59375 8.601562 45.773438 9.640625 43.949219 10.667969 C 41.757812 11.90625 39.558594 13.136719 37.367188 14.371094 C 34.960938 15.726562 32.554688 17.085938 30.152344 18.441406 C 28.257812 19.511719 26.363281 20.585938 24.46875 21.652344 C 22.332031 22.859375 20.191406 24.058594 18.054688 25.261719 C 16.359375 26.21875 14.664062 27.183594 12.960938 28.132812 C 12.402344 28.445312 12.101562 28.859375 12.101562 29.53125 C 12.113281 43.234375 12.109375 56.941406 12.105469 70.644531 C 12.105469 71.226562 12.324219 71.621094 12.835938 71.90625 C 15.058594 73.152344 17.273438 74.417969 19.496094 75.667969 C 20.699219 76.34375 21.871094 77.078125 23.121094 77.667969 C 24.605469 78.371094 26.148438 78.726562 27.800781 78.417969 C 29.953125 78.015625 31.542969 76.125 31.542969 73.9375 C 31.542969 60.382812 31.542969 46.824219 31.542969 33.265625 C 31.542969 33.085938 31.53125 32.90625 31.550781 32.730469 C 31.613281 32.136719 32.03125 31.742188 32.617188 31.742188 C 34.214844 31.734375 35.808594 31.734375 37.402344 31.742188 C 38.039062 31.742188 38.457031 32.175781 38.476562 32.820312 C 38.476562 32.902344 38.476562 32.984375 38.476562 33.0625 C 38.476562 47.011719 38.507812 60.960938 38.453125 74.910156 C 38.441406 77.816406 37.472656 80.464844 35.34375 82.566406 C 34.003906 83.886719 32.316406 84.566406 30.511719 84.945312 C 27.25 85.636719 24.082031 85.253906 21.03125 83.945312 C 18.609375 82.90625 16.359375 81.527344 14.066406 80.234375 C 12.46875 79.332031 10.855469 78.457031 9.273438 77.53125 C 7.09375 76.257812 5.808594 74.367188 5.449219 71.851562 C 5.394531 71.445312 5.371094 71.046875 5.371094 70.640625 C 5.371094 56.839844 5.347656 43.039062 5.390625 29.234375 C 5.398438 26.28125 6.808594 24.027344 9.390625 22.554688 C 12.285156 20.902344 15.183594 19.269531 18.082031 17.632812 C 20.726562 16.136719 23.378906 14.65625 26.023438 13.160156 C 28.609375 11.699219 31.191406 10.226562 33.78125 8.765625 C 36.210938 7.394531 38.648438 6.027344 41.082031 4.652344 C 42.707031 3.734375 44.3125 2.78125 45.957031 1.890625 C 48.871094 0.3125 51.761719 0.410156 54.625 2.070312 C 56.550781 3.1875 58.496094 4.265625 60.429688 5.363281 C 63.042969 6.84375 65.65625 8.328125 68.269531 9.808594 C 70.390625 11.007812 72.519531 12.195312 74.640625 13.394531 C 76.761719 14.589844 78.882812 15.789062 81.003906 16.988281 C 83.109375 18.179688 85.214844 19.375 87.320312 20.566406 C 88.636719 21.308594 89.996094 21.980469 91.257812 22.804688 C 93.515625 24.285156 94.820312 26.363281 94.820312 29.132812 C 94.828125 43.078125 94.832031 57.027344 94.820312 70.976562 C 94.816406 74.003906 93.332031 76.1875 90.753906 77.664062 C 88.332031 79.054688 85.894531 80.417969 83.460938 81.789062 C 81.054688 83.144531 78.648438 84.496094 76.242188 85.851562 C 74.09375 87.066406 71.945312 88.285156 69.796875 89.5 C 67.664062 90.707031 65.523438 91.90625 63.386719 93.109375 C 60.96875 94.476562 58.5625 95.859375 56.132812 97.203125 C 54.882812 97.890625 53.707031 98.738281 52.300781 99.105469 C 50.023438 99.699219 47.882812 99.375 45.84375 98.175781 C 42.890625 96.433594 39.90625 94.757812 36.945312 93.027344 C 35.671875 92.28125 34.339844 91.632812 33.148438 90.746094 C 32.574219 90.316406 32.574219 90.050781 33.234375 89.75 C 33.957031 89.417969 34.722656 89.183594 35.464844 88.90625 C 36.640625 88.464844 37.742188 87.863281 38.835938 87.257812 C 39.363281 86.964844 39.8125 87.007812 40.296875 87.289062 C 41.585938 88.039062 42.878906 88.789062 44.171875 89.539062 C 45.941406 90.566406 47.714844 91.589844 49.484375 92.613281 C 49.921875 92.863281 50.355469 92.824219 50.78125 92.582031 C 52.523438 91.605469 54.265625 90.628906 56.007812 89.648438 C 58.203125 88.414062 60.394531 87.179688 62.585938 85.941406 C 65.1875 84.472656 67.789062 82.996094 70.390625 81.527344 C 72.597656 80.285156 74.808594 79.046875 77.015625 77.800781 C 79.363281 76.476562 81.707031 75.144531 84.050781 73.816406 C 85.113281 73.21875 86.160156 72.59375 87.238281 72.027344 C 87.882812 71.6875 88.105469 71.222656 88.101562 70.5 C 88.085938 57.105469 88.089844 43.707031 88.089844 30.3125 C 88.089844 30.070312 88.09375 29.824219 88.097656 29.535156 C 88.132812 29.445312 88.136719 29.394531 88.109375 29.320312 Z M 88.109375 29.320312 "/>
<path style=" stroke:none;fill-rule:nonzero;fill:rgb(54.901961%,78.431373%,29.411765%);fill-opacity:1;" d="M 60.996094 30.640625 C 64.128906 30.609375 67.152344 30.996094 70.078125 32.035156 C 71.902344 32.683594 73.613281 33.539062 74.988281 34.929688 C 76.179688 36.132812 77.054688 37.550781 77.652344 39.140625 C 78.136719 40.429688 78.375 41.761719 78.511719 43.121094 C 78.59375 43.960938 78.148438 44.433594 77.285156 44.433594 C 75.804688 44.433594 74.324219 44.433594 72.84375 44.433594 C 71.980469 44.433594 71.691406 44.230469 71.457031 43.382812 C 71.207031 42.488281 70.925781 41.617188 70.472656 40.796875 C 69.53125 39.097656 68.027344 38.207031 66.230469 37.699219 C 64.707031 37.269531 63.148438 37.09375 61.566406 37.109375 C 60.039062 37.128906 58.511719 37.03125 56.988281 37.210938 C 55.417969 37.394531 53.882812 37.703125 52.5 38.539062 C 51.128906 39.371094 50.421875 40.984375 50.644531 42.578125 C 50.804688 43.722656 51.441406 44.382812 52.445312 44.785156 C 54.140625 45.472656 55.933594 45.785156 57.726562 46.089844 C 61.539062 46.742188 65.410156 47.027344 69.195312 47.863281 C 71.496094 48.367188 73.785156 48.929688 75.835938 50.175781 C 78.300781 51.675781 79.617188 53.863281 79.894531 56.734375 C 80.058594 58.402344 79.976562 60.03125 79.507812 61.644531 C 78.847656 63.914062 77.539062 65.722656 75.640625 67.105469 C 73.386719 68.742188 70.828125 69.632812 68.109375 70.117188 C 66.640625 70.378906 65.164062 70.53125 63.675781 70.632812 C 62.503906 70.707031 61.332031 70.734375 60.167969 70.6875 C 56.640625 70.550781 53.148438 70.175781 49.835938 68.839844 C 47.515625 67.902344 45.5 66.550781 44.03125 64.488281 C 42.988281 63.019531 42.367188 61.375 42.09375 59.597656 C 42.007812 59.023438 41.960938 58.441406 41.902344 57.863281 C 41.871094 57.535156 41.890625 57.210938 42.019531 56.902344 C 42.191406 56.488281 42.484375 56.25 42.949219 56.25 C 44.59375 56.253906 46.238281 56.246094 47.882812 56.253906 C 48.421875 56.257812 48.824219 56.621094 48.921875 57.164062 C 49.097656 58.121094 49.296875 59.070312 49.707031 59.964844 C 50.457031 61.605469 51.746094 62.605469 53.410156 63.203125 C 54.78125 63.695312 56.179688 63.972656 57.632812 64.074219 C 59.25 64.1875 60.871094 64.320312 62.492188 64.246094 C 64.402344 64.160156 66.320312 64.113281 68.175781 63.566406 C 69.628906 63.140625 70.984375 62.53125 71.859375 61.199219 C 72.703125 59.921875 72.804688 57.800781 72.078125 56.75 C 71.605469 56.070312 70.925781 55.667969 70.171875 55.371094 C 68.347656 54.648438 66.4375 54.308594 64.511719 53.996094 C 62.71875 53.703125 60.914062 53.53125 59.113281 53.335938 C 56.824219 53.082031 54.539062 52.816406 52.304688 52.246094 C 50.746094 51.847656 49.214844 51.371094 47.800781 50.570312 C 45.394531 49.214844 43.867188 47.25 43.371094 44.5 C 42.933594 42.097656 43.167969 39.773438 44.222656 37.570312 C 45.113281 35.710938 46.546875 34.339844 48.292969 33.28125 C 50.421875 31.984375 52.769531 31.332031 55.210938 30.949219 C 56.949219 30.679688 58.699219 30.640625 60.5 30.664062 C 60.675781 30.578125 60.820312 30.625 60.996094 30.640625 Z M 60.996094 30.640625 "/>
<path style=" stroke:none;fill-rule:nonzero;fill:rgb(61.568627%,86.666667%,37.647059%);fill-opacity:1;" d="M 61.007812 30.640625 C 60.898438 30.664062 60.761719 30.664062 60.585938 30.664062 C 60.679688 30.550781 60.828125 30.539062 61.007812 30.640625 Z M 61.007812 30.640625 "/>
<path style=" stroke:none;fill-rule:nonzero;fill:rgb(58.431373%,83.529412%,33.72549%);fill-opacity:1;" d="M 88.09375 29.328125 C 88.140625 29.34375 88.164062 29.394531 88.113281 29.472656 C 88.097656 29.449219 88.09375 29.40625 88.09375 29.328125 Z M 88.09375 29.328125 "/>
</g>
</svg>
