<?xml version="1.0" encoding="UTF-8"?>
<svg xmlns="http://www.w3.org/2000/svg" xmlns:xlink="http://www.w3.org/1999/xlink" width="100px" height="100px" viewBox="0 0 100 100" version="1.1">
<g id="surface1">
<path style=" stroke:none;fill-rule:nonzero;fill:rgb(92.54902%,93.72549%,94.901961%);fill-opacity:1;" d="M 39.90625 58.082031 C 39.050781 57.40625 38.550781 57.789062 37.96875 58.460938 C 35.878906 60.871094 33.785156 63.28125 31.734375 65.726562 C 30.4375 67.269531 28.863281 68.296875 26.703125 67.652344 C 25.714844 67.359375 24.949219 66.710938 24.25 65.984375 C 22.6875 64.367188 21.601562 62.429688 20.640625 60.425781 C 18.460938 55.859375 16.972656 51.046875 15.691406 46.167969 C 14.460938 41.480469 13.332031 36.757812 12.832031 31.929688 C 12.398438 27.726562 12.667969 23.554688 14.429688 19.621094 C 16.246094 15.5625 19.398438 13.097656 23.722656 12.1875 C 29.742188 10.914062 35.523438 12.058594 41.191406 14.082031 C 41.871094 14.324219 42.335938 14.265625 42.917969 13.863281 C 45.167969 12.308594 47.75 11.703125 50.425781 11.523438 C 52.78125 11.367188 55.125 11.554688 57.417969 12.164062 C 57.828125 12.273438 58.199219 12.214844 58.613281 12.082031 C 65.265625 9.945312 71.878906 9.746094 78.359375 12.695312 C 81.394531 14.074219 83.890625 16.1875 85.882812 18.855469 C 87.222656 20.652344 87.429688 22.8125 87.410156 24.960938 C 87.359375 30.140625 86.101562 35.101562 84.441406 39.96875 C 82.308594 46.21875 79.402344 52.09375 75.824219 57.632812 C 75.507812 58.121094 75.558594 58.402344 76.027344 58.703125 C 76.792969 59.199219 77.628906 59.441406 78.523438 59.511719 C 80.722656 59.683594 82.882812 59.421875 85.027344 58.941406 C 85.59375 58.816406 86.167969 58.726562 86.753906 58.847656 C 87.5625 59.011719 87.875 59.558594 87.570312 60.3125 C 87.339844 60.894531 86.933594 61.355469 86.46875 61.761719 C 82.613281 65.160156 78.054688 66.003906 73.105469 65.421875 C 72.585938 65.359375 72 64.808594 71.664062 65.09375 C 71.371094 65.347656 71.492188 66.074219 71.425781 66.59375 C 70.839844 71.125 70.3125 75.667969 69.652344 80.191406 C 68.800781 86.042969 65.964844 88.808594 60.105469 89.714844 C 57.195312 90.164062 54.539062 89.777344 52.558594 87.339844 C 51.105469 85.550781 50.410156 83.457031 50.152344 81.160156 C 49.578125 76.042969 49.675781 70.910156 49.667969 65.78125 C 49.667969 65.59375 49.667969 65.40625 49.667969 65.039062 C 49.363281 65.367188 49.164062 65.570312 48.972656 65.78125 C 45.507812 69.609375 40.074219 69.625 36.394531 67.953125 C 35.617188 67.601562 34.753906 67.136719 34.835938 66.105469 C 34.917969 65.078125 35.84375 64.769531 36.664062 64.523438 C 37.796875 64.183594 38.953125 63.914062 40.113281 63.679688 C 42.132812 63.277344 43.1875 61.707031 44.304688 60.238281 C 44.765625 59.640625 44.339844 58.996094 43.574219 58.988281 C 42.300781 58.972656 41.117188 58.605469 39.90625 58.082031 Z M 39.90625 58.082031 "/>
<path style=" stroke:none;fill-rule:nonzero;fill:rgb(20%,41.176471%,57.647059%);fill-opacity:1;" d="M 50.496094 62.546875 C 50.289062 60.808594 49.5625 59.515625 47.929688 58.882812 C 47.261719 58.621094 46.574219 58.566406 45.914062 58.917969 C 45.191406 59.308594 45.175781 58.90625 45.28125 58.371094 C 45.683594 56.316406 46.429688 54.367188 47.300781 52.480469 C 48.714844 49.40625 49.542969 46.21875 49.457031 42.816406 C 49.390625 40.226562 49.074219 37.667969 48.476562 35.148438 C 47.726562 32.003906 45.4375 30.554688 41.921875 30.96875 C 39.621094 31.238281 37.527344 32.105469 35.550781 33.28125 C 35.34375 33.40625 35.179688 33.617188 34.847656 33.625 C 34.722656 32.796875 34.886719 31.988281 34.972656 31.179688 C 35.316406 27.871094 36.066406 24.667969 37.464844 21.636719 C 40.425781 15.195312 45.496094 12.039062 52.578125 12.324219 C 60.386719 12.640625 66.4375 16.226562 71.019531 22.445312 C 72.628906 24.625 73.90625 26.988281 74.792969 29.550781 C 75.207031 30.742188 75.179688 30.773438 73.957031 30.628906 C 72.34375 30.441406 70.742188 30.4375 69.15625 30.804688 C 66.464844 31.425781 64.984375 33.28125 64.917969 36.03125 C 64.859375 38.417969 65.535156 40.636719 66.371094 42.824219 C 67.332031 45.34375 68.539062 47.753906 69.875 50.089844 C 70.976562 52.015625 71.671875 54.160156 73.101562 55.902344 C 73.558594 56.460938 73.972656 57.050781 74.390625 57.640625 C 74.695312 58.066406 74.6875 58.390625 74.074219 58.523438 C 71.578125 59.074219 70.886719 60.773438 70.871094 63.011719 C 70.847656 65.542969 70.429688 68.039062 70.132812 70.546875 C 69.757812 73.714844 69.324219 76.878906 68.851562 80.035156 C 68.066406 85.285156 66.0625 88.253906 58.902344 89.042969 C 54.390625 89.539062 51.933594 86.339844 51.15625 82.320312 C 50.617188 79.539062 50.582031 76.695312 50.496094 73.863281 C 50.378906 70.117188 50.4375 66.371094 50.496094 62.546875 Z M 50.496094 62.546875 "/>
<path style=" stroke:none;fill-rule:nonzero;fill:rgb(20.392157%,41.176471%,57.647059%);fill-opacity:1;" d="M 29.851562 66.382812 C 28.425781 67.351562 27.082031 67.226562 25.78125 66.277344 C 24.027344 64.992188 22.945312 63.171875 21.96875 61.296875 C 19.828125 57.191406 18.390625 52.816406 17.148438 48.371094 C 15.613281 42.890625 14.265625 37.359375 13.628906 31.695312 C 13.238281 28.253906 13.488281 24.820312 14.589844 21.496094 C 16.230469 16.535156 19.683594 13.6875 24.789062 12.824219 C 29.910156 11.957031 34.84375 12.933594 39.710938 14.445312 C 41.34375 14.953125 41.332031 14.984375 40.183594 16.191406 C 37.214844 19.320312 35.753906 23.175781 34.820312 27.292969 C 33.964844 31.09375 33.914062 34.933594 34.148438 38.804688 C 34.296875 41.160156 34.125 43.519531 33.820312 45.863281 C 33.261719 50.164062 34.484375 53.8125 37.785156 56.699219 C 38.050781 56.929688 38.199219 57.082031 37.886719 57.417969 C 35.457031 60.015625 33.183594 62.746094 30.890625 65.457031 C 30.605469 65.792969 30.234375 66.054688 29.851562 66.382812 Z M 29.851562 66.382812 "/>
<path style=" stroke:none;fill-rule:nonzero;fill:rgb(20.784314%,41.568627%,58.039216%);fill-opacity:1;" d="M 69.292969 19.207031 C 66.527344 16.257812 63.296875 14.117188 59.371094 12.734375 C 60.742188 12.199219 62.011719 11.957031 63.289062 11.761719 C 68.828125 10.917969 74.199219 11.28125 79.207031 14.082031 C 81.539062 15.386719 83.496094 17.140625 85.136719 19.242188 C 86.027344 20.378906 86.351562 21.71875 86.496094 23.117188 C 86.898438 27.105469 86.140625 30.972656 85.140625 34.792969 C 83.097656 42.617188 79.757812 49.882812 75.460938 56.714844 C 75.359375 56.875 75.292969 57.074219 75.082031 57.132812 C 75.058594 57.117188 75.027344 57.109375 75.007812 57.089844 C 74.011719 56.136719 73.675781 55.257812 74.492188 53.839844 C 75.914062 51.367188 75.832031 48.558594 75.589844 45.792969 C 75.398438 43.585938 74.996094 41.390625 75.113281 39.15625 C 75.203125 37.40625 75.535156 35.6875 75.738281 33.949219 C 75.992188 31.847656 75.851562 29.828125 74.953125 27.851562 C 73.515625 24.691406 71.714844 21.785156 69.292969 19.207031 Z M 69.292969 19.207031 "/>
<path style=" stroke:none;fill-rule:nonzero;fill:rgb(20.392157%,41.568627%,57.647059%);fill-opacity:1;" d="M 34.808594 43.675781 C 35.042969 40.9375 34.953125 38.277344 34.78125 35.617188 C 34.746094 35.074219 34.851562 34.652344 35.339844 34.339844 C 37.804688 32.746094 40.414062 31.578125 43.421875 31.679688 C 45.585938 31.753906 47.089844 32.859375 47.609375 34.960938 C 49.03125 40.703125 49.386719 46.410156 46.699219 51.953125 C 45.8125 53.777344 45.117188 55.683594 44.664062 57.664062 C 44.550781 58.15625 44.289062 58.195312 43.894531 58.183594 C 40.109375 58.074219 37.476562 56.136719 35.707031 52.925781 C 34.527344 50.792969 34.246094 48.472656 34.550781 46.066406 C 34.648438 45.296875 34.722656 44.523438 34.808594 43.675781 Z M 34.808594 43.675781 "/>
<path style=" stroke:none;fill-rule:nonzero;fill:rgb(21.176471%,41.960784%,58.039216%);fill-opacity:1;" d="M 70.320312 49.335938 C 68.5 45.925781 66.78125 42.535156 65.9375 38.785156 C 65.714844 37.808594 65.621094 36.816406 65.675781 35.8125 C 65.792969 33.707031 66.898438 32.257812 68.90625 31.652344 C 70.785156 31.085938 72.691406 31.21875 74.601562 31.453125 C 75.132812 31.519531 75.109375 31.863281 75.101562 32.234375 C 75.074219 33.597656 74.917969 34.949219 74.65625 36.28125 C 73.988281 39.703125 74.582031 43.082031 74.894531 46.476562 C 75.132812 49.058594 74.910156 51.578125 73.667969 53.921875 C 73.546875 54.148438 73.496094 54.515625 73.183594 54.511719 C 72.925781 54.511719 72.828125 54.183594 72.71875 53.972656 C 71.917969 52.449219 71.136719 50.917969 70.320312 49.335938 Z M 70.320312 49.335938 "/>
<path style=" stroke:none;fill-rule:nonzero;fill:rgb(21.176471%,41.960784%,58.039216%);fill-opacity:1;" d="M 36.039062 66.792969 C 35.480469 66.304688 35.632812 65.949219 36.148438 65.648438 C 36.757812 65.296875 37.441406 65.152344 38.117188 64.988281 C 38.84375 64.8125 39.574219 64.648438 40.300781 64.46875 C 41.84375 64.09375 43.09375 63.308594 44.007812 61.972656 C 44.460938 61.308594 44.992188 60.695312 45.550781 60.117188 C 46.335938 59.300781 47.121094 59.226562 48.109375 59.789062 C 49.730469 60.703125 50.199219 62.910156 49.082031 64.390625 C 46.09375 68.371094 40.054688 69.503906 36.039062 66.792969 Z M 36.039062 66.792969 "/>
<path style=" stroke:none;fill-rule:nonzero;fill:rgb(21.568627%,42.352941%,58.431373%);fill-opacity:1;" d="M 78.492188 60.34375 C 80.800781 60.574219 82.984375 60.195312 85.167969 59.777344 C 85.699219 59.671875 86.472656 59.375 86.714844 59.828125 C 87.007812 60.378906 86.289062 60.828125 85.882812 61.199219 C 83.074219 63.78125 79.65625 64.699219 75.945312 64.8125 C 74.890625 64.84375 73.835938 64.808594 72.8125 64.511719 C 71.785156 64.210938 71.578125 63.917969 71.617188 62.839844 C 71.703125 60.53125 72.484375 59.601562 74.734375 59.089844 C 74.988281 59.03125 75.148438 59.078125 75.335938 59.226562 C 76.230469 59.957031 77.296875 60.222656 78.492188 60.34375 Z M 78.492188 60.34375 "/>
<path style=" stroke:none;fill-rule:nonzero;fill:rgb(97.647059%,98.039216%,98.823529%);fill-opacity:1;" d="M 44.359375 36.363281 C 43.277344 36.480469 42.378906 35.996094 41.976562 35.160156 C 41.738281 34.664062 41.890625 34.324219 42.378906 34.199219 C 43.378906 33.949219 44.359375 34.046875 45.261719 34.578125 C 45.792969 34.894531 45.785156 35.316406 45.398438 35.75 C 45.136719 36.050781 44.796875 36.234375 44.359375 36.363281 Z M 44.359375 36.363281 "/>
<path style=" stroke:none;fill-rule:nonzero;fill:rgb(95.686275%,96.862745%,97.647059%);fill-opacity:1;" d="M 70.28125 35.53125 C 69.183594 35.507812 68.21875 34.960938 68.339844 34.398438 C 68.527344 33.519531 69.378906 33.539062 70.054688 33.363281 C 70.160156 33.335938 70.277344 33.332031 70.386719 33.335938 C 70.972656 33.371094 71.78125 33.148438 71.953125 33.894531 C 72.113281 34.578125 71.460938 35.007812 70.898438 35.335938 C 70.734375 35.433594 70.535156 35.464844 70.28125 35.53125 Z M 70.28125 35.53125 "/>
</g>
</svg>
