<?xml version="1.0" encoding="UTF-8"?>
<svg xmlns="http://www.w3.org/2000/svg" xmlns:xlink="http://www.w3.org/1999/xlink" width="100px" height="100px" viewBox="0 0 100 86" version="1.1">
<g id="surface1">
<path style=" stroke:none;fill-rule:nonzero;fill:rgb(38.039216%,85.490196%,98.431373%);fill-opacity:1;" d="M 58.710938 43 C 58.710938 47.757812 54.8125 51.617188 50 51.617188 C 45.1875 51.617188 41.289062 47.757812 41.289062 43 C 41.289062 38.242188 45.1875 34.382812 50 34.382812 C 54.8125 34.382812 58.710938 38.242188 58.710938 43 Z M 58.710938 43 "/>
<path style="fill:none;stroke-width:1;stroke-linecap:butt;stroke-linejoin:miter;stroke:rgb(38.039216%,85.490196%,98.431373%);stroke-opacity:1;stroke-miterlimit:4;" d="M 10.99984 0 C 10.99984 -2.319988 6.075375 -4.20033 0 -4.20033 C -6.075375 -4.20033 -10.99984 -2.319988 -10.99984 0 C -10.99984 2.319988 -6.075375 4.20033 0 4.20033 C 6.075375 4.20033 10.99984 2.319988 10.99984 0 Z M 10.99984 0 " transform="matrix(4.249352,0,0,4.202609,50,43)"/>
<path style="fill:none;stroke-width:1;stroke-linecap:butt;stroke-linejoin:miter;stroke:rgb(38.039216%,85.490196%,98.431373%);stroke-opacity:1;stroke-miterlimit:4;" d="M 10.999946 0.0000611033 C 10.999651 -2.319416 6.075018 -4.199903 0.000357956 -4.200021 C -6.075567 -4.199807 -11.000241 -2.319538 -10.999946 -0.0000611033 C -10.999651 2.319416 -6.075018 4.199903 -0.000357956 4.200021 C 6.075567 4.199807 11.000241 2.319538 10.999946 0.0000611033 Z M 10.999946 0.0000611033 " transform="matrix(2.124676,3.639566,-3.680046,2.101304,50,43)"/>
<path style="fill:none;stroke-width:1;stroke-linecap:butt;stroke-linejoin:miter;stroke:rgb(38.039216%,85.490196%,98.431373%);stroke-opacity:1;stroke-miterlimit:4;" d="M 10.999946 -0.0000611033 C 11.000241 -2.319538 6.075567 -4.199807 -0.000357956 -4.200021 C -6.075018 -4.199903 -10.999651 -2.319416 -10.999946 0.0000611033 C -11.000241 2.319538 -6.075567 4.199807 0.000357956 4.200021 C 6.075018 4.199903 10.999651 2.319416 10.999946 -0.0000611033 Z M 10.999946 -0.0000611033 " transform="matrix(-2.124676,3.639566,-3.680046,-2.101304,50,43)"/>
</g>
</svg>
