<?xml version="1.0" encoding="UTF-8"?>
<svg xmlns="http://www.w3.org/2000/svg" xmlns:xlink="http://www.w3.org/1999/xlink" width="100px" height="100px" viewBox="0 0 100 100" version="1.1">
<g id="surface1">
<path style=" stroke:none;fill-rule:nonzero;fill:rgb(46.27451%,29.019608%,73.72549%);fill-opacity:1;" d="M 66.007812 88.125 C 64.816406 87.945312 63.65625 87.871094 62.5625 87.566406 C 60.804688 87.082031 59.089844 86.457031 57.359375 85.875 C 56.945312 85.734375 56.542969 85.550781 56.140625 85.367188 C 55.648438 85.144531 55.613281 84.746094 56.035156 84.414062 C 57.289062 83.421875 58.5625 82.453125 59.777344 81.414062 C 60.363281 80.910156 60.839844 81.285156 61.351562 81.429688 C 62.714844 81.8125 64.0625 82.242188 65.425781 82.625 C 67.253906 83.136719 69.128906 83.144531 71.011719 83.132812 C 72.546875 83.121094 74.023438 82.792969 75.460938 82.320312 C 77.542969 81.636719 79.359375 80.484375 80.886719 78.914062 C 82.671875 77.074219 84.027344 74.957031 84.699219 72.460938 C 85.445312 69.695312 85.121094 66.988281 84.160156 64.320312 C 83.417969 62.261719 82.457031 60.3125 81.234375 58.507812 C 80.589844 57.546875 79.859375 56.625 79.070312 55.78125 C 77.679688 54.296875 76.207031 52.902344 74.542969 51.707031 C 72.601562 50.320312 70.558594 49.125 68.414062 48.097656 C 66.199219 47.035156 63.914062 46.171875 61.507812 45.597656 C 59.660156 45.15625 57.820312 44.707031 55.910156 44.621094 C 54.238281 44.546875 52.570312 44.445312 50.898438 44.390625 C 50.6875 44.382812 50.375 44.535156 50.277344 44.710938 C 49.070312 46.878906 46.726562 48.128906 44.113281 47.652344 C 41.472656 47.171875 39.488281 44.78125 39.492188 42.101562 C 39.496094 39.8125 40.371094 38.011719 42.355469 36.828125 C 44.800781 35.375 48.390625 36.019531 49.964844 38.6875 C 50.164062 39.027344 50.386719 39.136719 50.757812 39.132812 C 51.921875 39.113281 53.09375 39.0625 54.253906 39.140625 C 55.707031 39.238281 57.15625 39.394531 58.59375 39.621094 C 60.382812 39.90625 62.183594 40.199219 63.9375 40.65625 C 65.523438 41.070312 67.070312 41.660156 68.605469 42.257812 C 71.453125 43.363281 74.101562 44.851562 76.59375 46.617188 C 78.832031 48.203125 80.867188 50.027344 82.714844 52.042969 C 84.570312 54.0625 86.207031 56.265625 87.417969 58.746094 C 88.441406 60.84375 89.25 63.023438 89.617188 65.339844 C 89.988281 67.644531 90.144531 69.945312 89.785156 72.289062 C 89.484375 74.269531 89.007812 76.167969 88.070312 77.941406 C 86.9375 80.089844 85.316406 81.835938 83.4375 83.339844 C 81.613281 84.804688 79.582031 85.933594 77.382812 86.742188 C 75.796875 87.328125 74.175781 87.785156 72.492188 88 C 70.5625 88.242188 68.628906 88.398438 66.6875 88.132812 C 66.484375 88.105469 66.273438 88.125 66.007812 88.125 Z M 66.007812 88.125 "/>
<path style=" stroke:none;fill-rule:nonzero;fill:rgb(46.27451%,29.019608%,73.72549%);fill-opacity:1;" d="M 61.96875 25.921875 C 61.5 25.246094 61.09375 24.578125 60.609375 23.972656 C 58.957031 21.894531 57.019531 20.144531 54.496094 19.203125 C 52.746094 18.546875 50.929688 18.390625 49.046875 18.59375 C 46.613281 18.855469 44.347656 19.582031 42.195312 20.671875 C 40.328125 21.617188 38.722656 22.953125 37.542969 24.695312 C 36.5 26.230469 35.519531 27.816406 34.660156 29.460938 C 33.632812 31.417969 33.023438 33.550781 32.644531 35.722656 C 32.386719 37.175781 32.265625 38.652344 32.132812 40.125 C 32.042969 41.132812 31.960938 42.152344 32.019531 43.160156 C 32.109375 44.734375 32.320312 46.300781 32.492188 47.871094 C 32.800781 50.75 33.636719 53.496094 34.761719 56.152344 C 35.441406 57.746094 36.265625 59.285156 37.054688 60.832031 C 37.132812 60.984375 37.429688 61.117188 37.621094 61.113281 C 40.09375 61.066406 42.007812 62.082031 43.214844 64.226562 C 43.84375 65.339844 43.972656 66.597656 43.777344 67.914062 C 43.582031 69.207031 43.136719 70.34375 42.195312 71.222656 C 40.644531 72.671875 38.84375 73.226562 36.710938 72.683594 C 34.484375 72.113281 33.125 70.679688 32.5625 68.554688 C 32.214844 67.253906 32.214844 65.875 32.828125 64.574219 C 32.921875 64.378906 32.820312 64.035156 32.710938 63.804688 C 31.734375 61.710938 30.667969 59.65625 29.765625 57.53125 C 28.777344 55.203125 28.085938 52.761719 27.640625 50.269531 C 27.347656 48.617188 27.152344 46.941406 27.015625 45.269531 C 26.894531 43.804688 26.800781 42.320312 26.902344 40.855469 C 27.046875 38.734375 27.261719 36.597656 27.667969 34.511719 C 28.042969 32.605469 28.644531 30.730469 29.273438 28.886719 C 30.15625 26.292969 31.496094 23.929688 33.171875 21.757812 C 34.695312 19.78125 36.492188 18.078125 38.550781 16.699219 C 40.226562 15.574219 42.035156 14.660156 44.019531 14.082031 C 45.484375 13.65625 46.957031 13.445312 48.449219 13.226562 C 50.355469 12.949219 52.195312 13.289062 54.015625 13.671875 C 56.050781 14.097656 57.941406 15.015625 59.667969 16.167969 C 61.917969 17.664062 63.808594 19.550781 65.394531 21.761719 C 66.921875 23.894531 68.109375 26.199219 68.925781 28.664062 C 69.519531 30.453125 69.859375 32.332031 70.242188 34.183594 C 70.480469 35.34375 70.589844 36.53125 70.746094 37.707031 C 70.765625 37.867188 70.734375 38.035156 70.71875 38.292969 C 69.851562 38.03125 69.027344 37.773438 68.195312 37.527344 C 67.4375 37.304688 66.667969 37.109375 65.917969 36.863281 C 65.75 36.808594 65.535156 36.609375 65.515625 36.457031 C 65.238281 34.195312 64.71875 31.992188 63.824219 29.894531 C 63.257812 28.566406 62.605469 27.273438 61.96875 25.921875 Z M 61.96875 25.921875 "/>
<path style=" stroke:none;fill-rule:nonzero;fill:rgb(46.27451%,29.019608%,73.72549%);fill-opacity:1;" d="M 12.082031 62.09375 C 12.574219 60.878906 12.976562 59.675781 13.507812 58.53125 C 14.496094 56.390625 15.890625 54.515625 17.4375 52.734375 C 19.039062 50.886719 20.890625 49.335938 22.933594 47.789062 C 23.125 48.46875 23.300781 49.074219 23.46875 49.683594 C 23.753906 50.746094 24.023438 51.808594 24.3125 52.867188 C 24.40625 53.210938 24.386719 53.417969 24.039062 53.6875 C 21.058594 56.007812 18.703125 58.847656 17.117188 62.292969 C 16.035156 64.636719 15.542969 67.109375 15.769531 69.675781 C 15.921875 71.40625 16.496094 73.050781 17.253906 74.621094 C 18.378906 76.941406 19.972656 78.859375 22.171875 80.222656 C 23.867188 81.273438 25.734375 81.9375 27.707031 82.238281 C 29.921875 82.574219 32.132812 82.761719 34.398438 82.421875 C 36.101562 82.167969 37.808594 81.972656 39.425781 81.390625 C 41.195312 80.75 42.988281 80.109375 44.648438 79.238281 C 46.675781 78.175781 48.628906 76.945312 50.519531 75.648438 C 53.644531 73.507812 56.320312 70.875 58.488281 67.757812 C 59.28125 66.617188 59.976562 65.414062 60.683594 64.21875 C 60.773438 64.066406 60.738281 63.734375 60.628906 63.589844 C 58.472656 60.710938 59.148438 56.539062 62.347656 54.742188 C 64.554688 53.507812 67.941406 53.980469 69.664062 56.28125 C 71.1875 58.316406 71.21875 61.558594 69.742188 63.5 C 68.914062 64.589844 67.839844 65.355469 66.464844 65.628906 C 66.09375 65.699219 65.789062 65.800781 65.582031 66.210938 C 64.925781 67.496094 64.304688 68.820312 63.488281 70 C 62.269531 71.757812 60.96875 73.472656 59.5625 75.082031 C 58.359375 76.457031 57.050781 77.78125 55.613281 78.898438 C 53.738281 80.347656 51.753906 81.683594 49.691406 82.855469 C 47.855469 83.898438 45.878906 84.714844 43.914062 85.503906 C 42.679688 86 41.359375 86.292969 40.0625 86.621094 C 38.742188 86.957031 37.40625 87.246094 36.070312 87.511719 C 35.226562 87.675781 34.371094 87.859375 33.519531 87.855469 C 31.597656 87.835938 29.65625 87.851562 27.761719 87.589844 C 25.050781 87.210938 22.464844 86.351562 20.050781 85.003906 C 18.300781 84.027344 16.75 82.824219 15.421875 81.34375 C 14.144531 79.929688 13.257812 78.261719 12.570312 76.496094 C 11.777344 74.46875 11.371094 72.359375 11.226562 70.175781 C 11.046875 67.433594 11.339844 64.769531 12.082031 62.09375 Z M 12.082031 62.09375 "/>
</g>
</svg>
