<?xml version="1.0" encoding="UTF-8"?>
<svg xmlns="http://www.w3.org/2000/svg" xmlns:xlink="http://www.w3.org/1999/xlink" width="87px" height="100px" viewBox="0 0 87 100" version="1.1">
<g id="surface1">
<path style=" stroke:none;fill-rule:nonzero;fill:rgb(1.176471%,68.627451%,93.72549%);fill-opacity:1;" d="M 0.195312 25.195312 C 0.195312 25.195312 0.195312 25.097656 0.261719 25.027344 C 2.816406 23.535156 5.308594 22.113281 7.792969 20.683594 C 10.867188 18.917969 13.933594 17.144531 17.007812 15.378906 C 20.28125 13.5 23.5625 11.628906 26.839844 9.75 C 30.082031 7.894531 33.328125 6.039062 36.570312 4.171875 C 38.851562 2.855469 41.125 1.519531 43.402344 0.195312 C 43.609375 0.195312 43.820312 0.195312 44.136719 0.257812 C 48.457031 2.746094 52.664062 5.183594 56.886719 7.59375 C 59.710938 9.210938 62.566406 10.777344 65.390625 12.390625 C 69.164062 14.546875 72.921875 16.730469 76.683594 18.90625 C 79.023438 20.257812 81.351562 21.625 83.703125 22.957031 C 84.847656 23.609375 86.03125 24.191406 87.195312 24.804688 C 87.195312 24.890625 87.195312 24.976562 87.125 25.128906 C 82.855469 27.507812 78.660156 29.828125 74.410156 32.105469 C 71.140625 30.238281 67.917969 28.40625 64.691406 26.585938 C 61.726562 24.914062 58.742188 23.277344 55.785156 21.59375 C 51.9375 19.40625 48.109375 17.183594 44.253906 15.007812 C 44.003906 14.867188 43.523438 14.886719 43.261719 15.035156 C 41.4375 16.054688 39.644531 17.136719 37.835938 18.1875 C 34.1875 20.304688 30.527344 22.40625 26.886719 24.539062 C 22.308594 27.226562 17.746094 29.933594 13.109375 32.605469 C 8.761719 30.117188 4.480469 27.65625 0.195312 25.195312 Z M 0.195312 25.195312 "/>
<path style=" stroke:none;fill-rule:nonzero;fill:rgb(13.72549%,47.45098%,74.117647%);fill-opacity:1;" d="M 0.195312 25.285156 C 4.480469 27.65625 8.761719 30.117188 13.105469 32.695312 C 13.160156 43.800781 13.191406 54.789062 13.121094 65.777344 C 13.109375 67.503906 13.359375 68.628906 15.121094 69.519531 C 18.761719 71.363281 22.222656 73.554688 25.757812 75.597656 C 28.8125 77.367188 31.863281 79.144531 34.925781 80.90625 C 37.871094 82.601562 40.832031 84.277344 43.792969 86.054688 C 43.796875 90.828125 43.796875 95.511719 43.792969 100.195312 C 43.707031 100.195312 43.621094 100.195312 43.4375 100.136719 C 41.382812 98.9375 39.429688 97.789062 37.460938 96.664062 C 34.222656 94.8125 30.972656 92.980469 27.734375 91.121094 C 23.679688 88.796875 19.636719 86.457031 15.585938 84.128906 C 11.84375 81.976562 8.105469 79.828125 4.355469 77.691406 C 2.980469 76.90625 1.582031 76.15625 0.195312 75.390625 C 0.195312 58.71875 0.195312 42.050781 0.195312 25.285156 Z M 0.195312 25.285156 "/>
<path style=" stroke:none;fill-rule:nonzero;fill:rgb(18.431373%,25.098039%,41.568627%);fill-opacity:1;" d="M 43.859375 100.195312 C 43.796875 95.511719 43.796875 90.828125 43.859375 86.035156 C 44.074219 85.867188 44.234375 85.820312 44.371094 85.738281 C 49.574219 82.6875 54.773438 79.636719 59.972656 76.582031 C 64.496094 73.925781 69.011719 71.257812 73.546875 68.617188 C 74.179688 68.246094 74.457031 67.820312 74.449219 67.066406 C 74.414062 63.457031 74.433594 59.847656 74.433594 56.238281 C 74.441406 48.207031 74.453125 40.179688 74.460938 32.148438 C 78.660156 29.828125 82.855469 27.507812 87.125 25.191406 C 87.195312 41.867188 87.195312 58.535156 87.136719 75.328125 C 84.222656 77.09375 81.371094 78.75 78.511719 80.390625 C 73.5625 83.234375 68.613281 86.078125 63.660156 88.917969 C 59.214844 91.464844 54.765625 94 50.328125 96.5625 C 48.269531 97.75 46.234375 98.980469 44.1875 100.195312 C 44.101562 100.195312 44.011719 100.195312 43.859375 100.195312 Z M 43.859375 100.195312 "/>
<path style=" stroke:none;fill-rule:nonzero;fill:rgb(13.72549%,47.45098%,74.117647%);fill-opacity:1;" d="M 44.578125 82.242188 C 43.757812 81.890625 42.902344 81.597656 42.113281 81.175781 C 39.597656 79.832031 37.101562 78.441406 34.601562 77.070312 C 33.863281 76.667969 33.109375 76.285156 32.390625 75.847656 C 32.210938 75.738281 32.03125 75.460938 32.03125 75.261719 C 32.039062 70.585938 32.070312 65.914062 32.199219 61.210938 C 36.332031 63.515625 40.367188 65.851562 44.394531 68.277344 C 44.390625 72.652344 44.382812 76.9375 44.394531 81.222656 C 44.394531 81.5625 44.515625 81.902344 44.578125 82.242188 Z M 44.578125 82.242188 "/>
<path style=" stroke:none;fill-rule:nonzero;fill:rgb(13.72549%,47.45098%,74.117647%);fill-opacity:1;" d="M 28.332031 59 C 28.332031 63.636719 28.332031 68.273438 28.332031 73.203125 C 27.144531 72.597656 26.179688 72.132812 25.238281 71.625 C 22.699219 70.246094 20.195312 68.800781 17.621094 67.484375 C 16.457031 66.886719 15.816406 66.277344 15.863281 64.800781 C 15.996094 60.582031 15.917969 56.355469 15.988281 52.070312 C 17.636719 52.914062 19.207031 53.828125 20.789062 54.730469 C 23.300781 56.15625 25.816406 57.574219 28.332031 59 Z M 28.332031 59 "/>
<path style=" stroke:none;fill-rule:nonzero;fill:rgb(1.176471%,68.627451%,93.72549%);fill-opacity:1;" d="M 30.867188 24.003906 C 32.453125 23.03125 34.03125 22.042969 35.625 21.085938 C 37.800781 19.78125 40 18.511719 42.171875 17.195312 C 42.824219 16.804688 43.398438 16.808594 44.042969 17.195312 C 47.800781 19.441406 51.570312 21.664062 55.304688 23.996094 C 51.257812 26.433594 47.238281 28.769531 43.175781 31.050781 C 40.386719 29.382812 37.648438 27.757812 34.886719 26.167969 C 33.570312 25.410156 32.210938 24.722656 30.867188 24.003906 Z M 30.867188 24.003906 "/>
<path style=" stroke:none;fill-rule:nonzero;fill:rgb(13.72549%,47.45098%,74.117647%);fill-opacity:1;" d="M 19.828125 49.417969 C 18.742188 48.84375 17.675781 48.226562 16.5625 47.707031 C 16.03125 47.457031 15.898438 47.132812 15.898438 46.589844 C 15.921875 42.058594 15.917969 37.523438 15.992188 32.914062 C 20.140625 35.179688 24.214844 37.515625 28.28125 39.945312 C 28.277344 41.949219 28.285156 43.859375 28.273438 45.773438 C 28.257812 48.429688 28.226562 51.085938 28.136719 53.738281 C 27.746094 53.574219 27.417969 53.429688 27.101562 53.261719 C 24.675781 51.984375 22.253906 50.699219 19.828125 49.417969 Z M 19.828125 49.417969 "/>
<path style=" stroke:none;fill-rule:nonzero;fill:rgb(13.72549%,47.45098%,74.117647%);fill-opacity:1;" d="M 36.078125 58.753906 C 34.886719 58.0625 33.695312 57.371094 32.398438 56.597656 C 32.207031 56.152344 32.058594 55.789062 32.046875 55.417969 C 32.007812 54.191406 32.019531 52.964844 32.015625 51.644531 C 32.03125 48.875 32.03125 46.195312 32.050781 43.515625 C 32.054688 43.007812 32.136719 42.496094 32.25 42.015625 C 36.335938 44.371094 40.363281 46.703125 44.386719 49.121094 C 44.386719 53.417969 44.378906 57.621094 44.394531 61.824219 C 44.394531 62.195312 44.523438 62.5625 44.542969 62.96875 C 44.402344 62.996094 44.292969 63.011719 44.214844 62.96875 C 41.953125 61.738281 39.699219 60.496094 37.429688 59.277344 C 37.007812 59.050781 36.527344 58.925781 36.078125 58.753906 Z M 36.078125 58.753906 "/>
<path style=" stroke:none;fill-rule:nonzero;fill:rgb(1.176471%,68.235294%,93.333333%);fill-opacity:1;" d="M 55.59375 27.945312 C 56.605469 27.367188 57.589844 26.738281 58.636719 26.242188 C 58.988281 26.078125 59.585938 26.117188 59.929688 26.3125 C 63.816406 28.535156 67.675781 30.808594 71.53125 33.125 C 67.53125 35.492188 63.546875 37.804688 59.484375 40.101562 C 59.144531 39.964844 58.871094 39.863281 58.621094 39.71875 C 55.523438 37.929688 52.421875 36.144531 49.335938 34.339844 C 48.640625 33.933594 47.992188 33.453125 47.375 32.96875 C 49.816406 31.519531 52.210938 30.117188 54.59375 28.699219 C 54.953125 28.484375 55.261719 28.195312 55.59375 27.945312 Z M 55.59375 27.945312 "/>
<path style=" stroke:none;fill-rule:nonzero;fill:rgb(1.176471%,68.627451%,93.72549%);fill-opacity:1;" d="M 28.285156 39.855469 C 24.214844 37.515625 20.140625 35.179688 16.003906 32.820312 C 17.035156 32.09375 18.109375 31.347656 19.234375 30.683594 C 21.957031 29.074219 24.714844 27.519531 27.425781 25.886719 C 27.972656 25.5625 28.296875 25.546875 28.796875 25.933594 C 29.375 26.382812 30.054688 26.707031 30.8125 27.140625 C 31.195312 27.390625 31.4375 27.609375 31.714844 27.773438 C 34.238281 29.265625 36.765625 30.734375 39.28125 32.238281 C 39.589844 32.421875 39.808594 32.75 40.011719 33.042969 C 36.066406 35.335938 32.175781 37.59375 28.285156 39.855469 Z M 28.285156 39.855469 "/>
<path style=" stroke:none;fill-rule:nonzero;fill:rgb(18.431373%,25.098039%,41.568627%);fill-opacity:1;" d="M 44.640625 82.210938 C 44.515625 81.902344 44.394531 81.5625 44.394531 81.222656 C 44.382812 76.9375 44.390625 72.652344 44.457031 68.246094 C 48.460938 65.847656 52.402344 63.570312 56.386719 61.363281 C 56.464844 61.851562 56.519531 62.269531 56.523438 62.691406 C 56.546875 65.8125 56.558594 68.9375 56.574219 72.058594 C 57.109375 74.585938 55.820312 75.894531 53.664062 76.988281 C 50.589844 78.550781 47.679688 80.433594 44.640625 82.210938 Z M 44.640625 82.210938 "/>
<path style=" stroke:none;fill-rule:nonzero;fill:rgb(18.431373%,25.098039%,41.568627%);fill-opacity:1;" d="M 71.5 52.339844 C 71.558594 52.6875 71.667969 53.03125 71.671875 53.378906 C 71.683594 57.378906 71.664062 61.382812 71.691406 65.382812 C 71.695312 66.082031 71.476562 66.488281 70.84375 66.851562 C 67.082031 69.003906 63.347656 71.207031 59.539062 73.308594 C 59.480469 68.605469 59.488281 63.988281 59.554688 59.332031 C 63.574219 56.976562 67.535156 54.660156 71.5 52.339844 Z M 71.5 52.339844 "/>
<path style=" stroke:none;fill-rule:nonzero;fill:rgb(18.431373%,25.098039%,41.568627%);fill-opacity:1;" d="M 59.5625 40.117188 C 63.546875 37.804688 67.53125 35.492188 71.582031 33.15625 C 71.65625 37.558594 71.683594 41.988281 71.648438 46.414062 C 71.644531 46.808594 71.316406 47.335938 70.976562 47.566406 C 69.839844 48.328125 68.632812 48.984375 67.332031 49.742188 C 66.863281 49.960938 66.496094 50.09375 66.160156 50.285156 C 63.925781 51.5625 61.695312 52.847656 59.46875 54.039062 C 59.476562 51.117188 59.46875 48.292969 59.484375 45.46875 C 59.492188 43.683594 59.535156 41.898438 59.5625 40.117188 Z M 59.5625 40.117188 "/>
<path style=" stroke:none;fill-rule:nonzero;fill:rgb(1.176471%,68.235294%,93.333333%);fill-opacity:1;" d="M 56.339844 61.292969 C 52.402344 63.570312 48.460938 65.847656 44.460938 68.15625 C 40.367188 65.851562 36.332031 63.515625 32.242188 61.140625 C 33.441406 60.332031 34.699219 59.566406 36.015625 58.777344 C 36.527344 58.925781 37.007812 59.050781 37.429688 59.277344 C 39.699219 60.496094 41.953125 61.738281 44.214844 62.96875 C 44.292969 63.011719 44.402344 62.996094 44.605469 62.9375 C 45.304688 62.523438 45.886719 62.171875 46.480469 61.832031 C 48.394531 60.734375 50.316406 59.644531 52.273438 58.609375 C 52.691406 58.910156 53.070312 59.152344 53.445312 59.402344 C 54.410156 60.03125 55.375 60.660156 56.339844 61.292969 Z M 56.339844 61.292969 "/>
<path style=" stroke:none;fill-rule:nonzero;fill:rgb(1.176471%,68.235294%,93.333333%);fill-opacity:1;" d="M 32.007812 51.734375 C 32.019531 52.964844 32.007812 54.191406 32.046875 55.417969 C 32.058594 55.789062 32.207031 56.152344 32.328125 56.582031 C 31.058594 57.414062 29.753906 58.179688 28.390625 58.972656 C 25.816406 57.574219 23.300781 56.15625 20.789062 54.730469 C 19.207031 53.828125 17.636719 52.914062 16 51.976562 C 16.832031 51.371094 17.722656 50.785156 18.621094 50.210938 C 18.996094 49.972656 19.386719 49.761719 19.800781 49.480469 C 22.253906 50.699219 24.675781 51.984375 27.101562 53.261719 C 27.417969 53.429688 27.746094 53.574219 28.214844 53.75 C 29.578125 53.089844 30.792969 52.414062 32.007812 51.734375 Z M 32.007812 51.734375 "/>
<path style=" stroke:none;fill-rule:nonzero;fill:rgb(1.176471%,68.235294%,93.333333%);fill-opacity:1;" d="M 59.464844 54.132812 C 61.695312 52.847656 63.925781 51.5625 66.160156 50.285156 C 66.496094 50.09375 66.863281 49.960938 67.285156 49.785156 C 68.71875 50.585938 70.082031 51.402344 71.472656 52.28125 C 67.535156 54.660156 63.574219 56.976562 59.488281 59.308594 C 57.957031 58.476562 56.539062 57.632812 55.171875 56.742188 C 56.300781 56.308594 56.613281 55.519531 56.503906 54.441406 C 56.449219 53.875 56.527344 53.292969 56.613281 52.734375 C 57.609375 53.214844 58.535156 53.671875 59.464844 54.132812 Z M 59.464844 54.132812 "/>
<path style=" stroke:none;fill-rule:nonzero;fill:rgb(18.039216%,25.490196%,42.352941%);fill-opacity:1;" d="M 55.589844 27.851562 C 55.261719 28.195312 54.953125 28.484375 54.59375 28.699219 C 52.210938 30.117188 49.816406 31.519531 47.316406 33.027344 C 47.113281 34.214844 47.023438 35.304688 46.867188 36.359375 C 46.199219 35.972656 45.570312 35.648438 44.996094 35.25 C 44.453125 34.878906 43.953125 34.828125 43.378906 35.128906 C 43.300781 33.738281 43.261719 32.421875 43.222656 31.105469 C 47.238281 28.769531 51.257812 26.433594 55.332031 24.058594 C 55.453125 25.265625 55.519531 26.511719 55.589844 27.851562 Z M 55.589844 27.851562 "/>
<path style=" stroke:none;fill-rule:nonzero;fill:rgb(13.72549%,47.058824%,73.333333%);fill-opacity:1;" d="M 55.121094 56.789062 C 56.539062 57.632812 57.957031 58.476562 59.433594 59.34375 C 59.488281 63.988281 59.480469 68.605469 59.46875 73.316406 C 58.546875 72.964844 57.628906 72.523438 56.640625 72.070312 C 56.558594 68.9375 56.546875 65.8125 56.523438 62.691406 C 56.519531 62.269531 56.464844 61.851562 56.386719 61.363281 C 55.375 60.660156 54.410156 60.03125 53.445312 59.402344 C 53.070312 59.152344 52.691406 58.910156 52.285156 58.546875 C 53.214844 57.878906 54.167969 57.335938 55.121094 56.789062 Z M 55.121094 56.789062 "/>
<path style=" stroke:none;fill-rule:nonzero;fill:rgb(13.72549%,47.45098%,74.117647%);fill-opacity:1;" d="M 43.175781 31.050781 C 43.261719 32.421875 43.300781 33.738281 43.332031 35.175781 C 42.386719 35.785156 41.453125 36.273438 40.488281 36.675781 C 40.445312 35.691406 40.457031 34.800781 40.398438 33.914062 C 40.378906 33.605469 40.1875 33.308594 40.070312 33.007812 C 39.808594 32.75 39.589844 32.421875 39.28125 32.238281 C 36.765625 30.734375 34.238281 29.265625 31.714844 27.773438 C 31.4375 27.609375 31.195312 27.390625 30.878906 27.160156 C 30.828125 26.144531 30.839844 25.167969 30.859375 24.097656 C 32.210938 24.722656 33.570312 25.410156 34.886719 26.167969 C 37.648438 27.757812 40.386719 29.382812 43.175781 31.050781 Z M 43.175781 31.050781 "/>
<path style=" stroke:none;fill-rule:nonzero;fill:rgb(18.431373%,25.490196%,41.960784%);fill-opacity:1;" d="M 40.011719 33.042969 C 40.1875 33.308594 40.378906 33.605469 40.398438 33.914062 C 40.457031 34.800781 40.445312 35.691406 40.4375 36.71875 C 38.988281 37.746094 37.558594 38.636719 36.132812 39.527344 C 34.816406 40.351562 33.5 41.167969 32.183594 41.988281 C 32.136719 42.496094 32.054688 43.007812 32.050781 43.515625 C 32.03125 46.195312 32.03125 48.875 32.015625 51.644531 C 30.792969 52.414062 29.578125 53.089844 28.28125 53.757812 C 28.226562 51.085938 28.257812 48.429688 28.273438 45.773438 C 28.285156 43.859375 28.277344 41.949219 28.28125 39.945312 C 32.175781 37.59375 36.066406 35.335938 40.011719 33.042969 Z M 40.011719 33.042969 "/>
<path style=" stroke:none;fill-rule:nonzero;fill:rgb(1.176471%,68.235294%,93.333333%);fill-opacity:1;" d="M 32.25 42.015625 C 33.5 41.167969 34.816406 40.351562 36.132812 39.527344 C 37.558594 38.636719 38.988281 37.746094 40.464844 36.808594 C 41.453125 36.273438 42.386719 35.785156 43.371094 35.25 C 43.953125 34.828125 44.453125 34.878906 44.996094 35.25 C 45.570312 35.648438 46.199219 35.972656 46.914062 36.402344 C 49.875 38.144531 52.734375 39.804688 55.578125 41.488281 C 55.824219 41.632812 55.972656 41.945312 56.109375 42.214844 C 52.164062 44.507812 48.277344 46.769531 44.390625 49.03125 C 40.363281 46.703125 36.335938 44.371094 32.25 42.015625 Z M 32.25 42.015625 "/>
<path style=" stroke:none;fill-rule:nonzero;fill:rgb(18.431373%,25.490196%,41.960784%);fill-opacity:1;" d="M 44.386719 49.121094 C 48.277344 46.769531 52.164062 44.507812 56.179688 42.246094 C 56.382812 42.613281 56.515625 42.980469 56.519531 43.347656 C 56.539062 46.472656 56.539062 49.59375 56.542969 52.71875 C 56.527344 53.292969 56.449219 53.875 56.503906 54.441406 C 56.613281 55.519531 56.300781 56.308594 55.171875 56.742188 C 54.167969 57.335938 53.214844 57.878906 52.246094 58.492188 C 50.316406 59.644531 48.394531 60.734375 46.480469 61.832031 C 45.886719 62.171875 45.304688 62.523438 44.65625 62.902344 C 44.523438 62.5625 44.394531 62.195312 44.394531 61.824219 C 44.378906 57.621094 44.386719 53.417969 44.386719 49.121094 Z M 44.386719 49.121094 "/>
<path style=" stroke:none;fill-rule:nonzero;fill:rgb(13.72549%,47.45098%,73.72549%);fill-opacity:1;" d="M 56.613281 52.734375 C 56.539062 49.59375 56.539062 46.472656 56.519531 43.347656 C 56.515625 42.980469 56.382812 42.613281 56.238281 42.214844 C 55.972656 41.945312 55.824219 41.632812 55.578125 41.488281 C 52.734375 39.804688 49.875 38.144531 46.976562 36.4375 C 47.023438 35.304688 47.113281 34.214844 47.261719 33.066406 C 47.992188 33.453125 48.640625 33.933594 49.335938 34.339844 C 52.421875 36.144531 55.523438 37.929688 58.621094 39.71875 C 58.871094 39.863281 59.144531 39.964844 59.484375 40.101562 C 59.535156 41.898438 59.492188 43.683594 59.484375 45.46875 C 59.46875 48.292969 59.476562 51.117188 59.46875 54.039062 C 58.535156 53.671875 57.609375 53.214844 56.613281 52.734375 Z M 56.613281 52.734375 "/>
</g>
</svg>
